%TF.GenerationSoftware,KiCad,Pcbnew,(6.0.9)*%
%TF.CreationDate,2022-11-24T16:48:46+01:00*%
%TF.ProjectId,LDAD ATOM PRO,4c444144-2041-4544-9f4d-2050524f2e6b,5.3*%
%TF.SameCoordinates,Original*%
%TF.FileFunction,Copper,L1,Top*%
%TF.FilePolarity,Positive*%
%FSLAX46Y46*%
G04 Gerber Fmt 4.6, Leading zero omitted, Abs format (unit mm)*
G04 Created by KiCad (PCBNEW (6.0.9)) date 2022-11-24 16:48:46*
%MOMM*%
%LPD*%
G01*
G04 APERTURE LIST*
G04 Aperture macros list*
%AMRoundRect*
0 Rectangle with rounded corners*
0 $1 Rounding radius*
0 $2 $3 $4 $5 $6 $7 $8 $9 X,Y pos of 4 corners*
0 Add a 4 corners polygon primitive as box body*
4,1,4,$2,$3,$4,$5,$6,$7,$8,$9,$2,$3,0*
0 Add four circle primitives for the rounded corners*
1,1,$1+$1,$2,$3*
1,1,$1+$1,$4,$5*
1,1,$1+$1,$6,$7*
1,1,$1+$1,$8,$9*
0 Add four rect primitives between the rounded corners*
20,1,$1+$1,$2,$3,$4,$5,0*
20,1,$1+$1,$4,$5,$6,$7,0*
20,1,$1+$1,$6,$7,$8,$9,0*
20,1,$1+$1,$8,$9,$2,$3,0*%
%AMRotRect*
0 Rectangle, with rotation*
0 The origin of the aperture is its center*
0 $1 length*
0 $2 width*
0 $3 Rotation angle, in degrees counterclockwise*
0 Add horizontal line*
21,1,$1,$2,0,0,$3*%
%AMFreePoly0*
4,1,6,0.500000,-0.850000,-0.500000,-0.850000,-0.500000,0.550000,-0.200000,0.850000,0.500000,0.850000,0.500000,-0.850000,0.500000,-0.850000,$1*%
G04 Aperture macros list end*
%TA.AperFunction,NonConductor*%
%ADD10C,0.200000*%
%TD*%
%TA.AperFunction,SMDPad,CuDef*%
%ADD11RoundRect,0.225000X-0.250000X0.225000X-0.250000X-0.225000X0.250000X-0.225000X0.250000X0.225000X0*%
%TD*%
%TA.AperFunction,SMDPad,CuDef*%
%ADD12RoundRect,0.250000X0.475000X-0.250000X0.475000X0.250000X-0.475000X0.250000X-0.475000X-0.250000X0*%
%TD*%
%TA.AperFunction,SMDPad,CuDef*%
%ADD13RoundRect,0.250000X-0.450000X0.350000X-0.450000X-0.350000X0.450000X-0.350000X0.450000X0.350000X0*%
%TD*%
%TA.AperFunction,SMDPad,CuDef*%
%ADD14RoundRect,0.250000X-0.250000X-0.475000X0.250000X-0.475000X0.250000X0.475000X-0.250000X0.475000X0*%
%TD*%
%TA.AperFunction,SMDPad,CuDef*%
%ADD15RoundRect,0.200000X-0.200000X-0.275000X0.200000X-0.275000X0.200000X0.275000X-0.200000X0.275000X0*%
%TD*%
%TA.AperFunction,SMDPad,CuDef*%
%ADD16RoundRect,0.200000X0.200000X0.275000X-0.200000X0.275000X-0.200000X-0.275000X0.200000X-0.275000X0*%
%TD*%
%TA.AperFunction,SMDPad,CuDef*%
%ADD17R,1.300000X1.000000*%
%TD*%
%TA.AperFunction,SMDPad,CuDef*%
%ADD18RoundRect,0.225000X0.225000X0.250000X-0.225000X0.250000X-0.225000X-0.250000X0.225000X-0.250000X0*%
%TD*%
%TA.AperFunction,SMDPad,CuDef*%
%ADD19RoundRect,0.050000X-0.238649X-0.309359X0.309359X0.238649X0.238649X0.309359X-0.309359X-0.238649X0*%
%TD*%
%TA.AperFunction,SMDPad,CuDef*%
%ADD20RoundRect,0.050000X0.238649X-0.309359X0.309359X-0.238649X-0.238649X0.309359X-0.309359X0.238649X0*%
%TD*%
%TA.AperFunction,SMDPad,CuDef*%
%ADD21RotRect,5.600000X5.600000X45.000000*%
%TD*%
%TA.AperFunction,SMDPad,CuDef*%
%ADD22RoundRect,0.200000X0.275000X-0.200000X0.275000X0.200000X-0.275000X0.200000X-0.275000X-0.200000X0*%
%TD*%
%TA.AperFunction,SMDPad,CuDef*%
%ADD23RoundRect,0.225000X-0.225000X-0.250000X0.225000X-0.250000X0.225000X0.250000X-0.225000X0.250000X0*%
%TD*%
%TA.AperFunction,ConnectorPad*%
%ADD24R,2.000000X0.400000*%
%TD*%
%TA.AperFunction,ComponentPad*%
%ADD25O,1.700000X1.100000*%
%TD*%
%TA.AperFunction,SMDPad,CuDef*%
%ADD26RoundRect,0.225000X0.250000X-0.225000X0.250000X0.225000X-0.250000X0.225000X-0.250000X-0.225000X0*%
%TD*%
%TA.AperFunction,SMDPad,CuDef*%
%ADD27R,0.250000X0.550000*%
%TD*%
%TA.AperFunction,SMDPad,CuDef*%
%ADD28FreePoly0,90.000000*%
%TD*%
%TA.AperFunction,SMDPad,CuDef*%
%ADD29R,1.100000X2.250000*%
%TD*%
%TA.AperFunction,SMDPad,CuDef*%
%ADD30R,1.050000X1.100000*%
%TD*%
%TA.AperFunction,SMDPad,CuDef*%
%ADD31RoundRect,0.250000X0.337500X0.475000X-0.337500X0.475000X-0.337500X-0.475000X0.337500X-0.475000X0*%
%TD*%
%TA.AperFunction,SMDPad,CuDef*%
%ADD32C,1.000000*%
%TD*%
%TA.AperFunction,SMDPad,CuDef*%
%ADD33RoundRect,0.250000X-0.375000X-1.075000X0.375000X-1.075000X0.375000X1.075000X-0.375000X1.075000X0*%
%TD*%
%TA.AperFunction,SMDPad,CuDef*%
%ADD34RoundRect,0.150000X-0.825000X-0.150000X0.825000X-0.150000X0.825000X0.150000X-0.825000X0.150000X0*%
%TD*%
%TA.AperFunction,SMDPad,CuDef*%
%ADD35R,1.400000X2.100000*%
%TD*%
%TA.AperFunction,SMDPad,CuDef*%
%ADD36RoundRect,0.150000X0.150000X-0.587500X0.150000X0.587500X-0.150000X0.587500X-0.150000X-0.587500X0*%
%TD*%
%TA.AperFunction,SMDPad,CuDef*%
%ADD37RoundRect,0.218750X0.381250X-0.218750X0.381250X0.218750X-0.381250X0.218750X-0.381250X-0.218750X0*%
%TD*%
%TA.AperFunction,SMDPad,CuDef*%
%ADD38RoundRect,0.124800X-0.475200X-0.275200X0.475200X-0.275200X0.475200X0.275200X-0.475200X0.275200X0*%
%TD*%
%TA.AperFunction,SMDPad,CuDef*%
%ADD39R,25.500000X0.400000*%
%TD*%
%TA.AperFunction,SMDPad,CuDef*%
%ADD40R,0.400000X20.500000*%
%TD*%
%TA.AperFunction,SMDPad,CuDef*%
%ADD41RoundRect,0.100000X-0.100000X-0.550000X0.100000X-0.550000X0.100000X0.550000X-0.100000X0.550000X0*%
%TD*%
%TA.AperFunction,SMDPad,CuDef*%
%ADD42RoundRect,0.262500X0.737500X0.262500X-0.737500X0.262500X-0.737500X-0.262500X0.737500X-0.262500X0*%
%TD*%
%TA.AperFunction,SMDPad,CuDef*%
%ADD43RoundRect,0.100000X0.100000X0.550000X-0.100000X0.550000X-0.100000X-0.550000X0.100000X-0.550000X0*%
%TD*%
%TA.AperFunction,SMDPad,CuDef*%
%ADD44RoundRect,0.150000X-0.625000X0.150000X-0.625000X-0.150000X0.625000X-0.150000X0.625000X0.150000X0*%
%TD*%
%TA.AperFunction,SMDPad,CuDef*%
%ADD45RoundRect,0.250000X-0.650000X0.350000X-0.650000X-0.350000X0.650000X-0.350000X0.650000X0.350000X0*%
%TD*%
%TA.AperFunction,SMDPad,CuDef*%
%ADD46RoundRect,0.066000X-0.404000X-0.154000X0.404000X-0.154000X0.404000X0.154000X-0.404000X0.154000X0*%
%TD*%
%TA.AperFunction,SMDPad,CuDef*%
%ADD47RoundRect,0.218750X-0.218750X-0.381250X0.218750X-0.381250X0.218750X0.381250X-0.218750X0.381250X0*%
%TD*%
%TA.AperFunction,SMDPad,CuDef*%
%ADD48R,0.400000X5.700000*%
%TD*%
%TA.AperFunction,ComponentPad*%
%ADD49R,1.000000X1.000000*%
%TD*%
%TA.AperFunction,ComponentPad*%
%ADD50O,1.000000X1.000000*%
%TD*%
%TA.AperFunction,SMDPad,CuDef*%
%ADD51R,0.500000X0.500000*%
%TD*%
%TA.AperFunction,SMDPad,CuDef*%
%ADD52R,25.400000X0.400000*%
%TD*%
%TA.AperFunction,SMDPad,CuDef*%
%ADD53R,0.400000X13.300000*%
%TD*%
%TA.AperFunction,SMDPad,CuDef*%
%ADD54RoundRect,0.041300X0.948700X0.253700X-0.948700X0.253700X-0.948700X-0.253700X0.948700X-0.253700X0*%
%TD*%
%TA.AperFunction,SMDPad,CuDef*%
%ADD55R,0.350000X0.580000*%
%TD*%
%TA.AperFunction,SMDPad,CuDef*%
%ADD56R,0.580000X0.350000*%
%TD*%
%TA.AperFunction,SMDPad,CuDef*%
%ADD57R,1.000000X1.300000*%
%TD*%
%TA.AperFunction,SMDPad,CuDef*%
%ADD58O,0.800000X1.500000*%
%TD*%
%TA.AperFunction,ViaPad*%
%ADD59C,0.800000*%
%TD*%
%TA.AperFunction,ViaPad*%
%ADD60C,0.600000*%
%TD*%
%TA.AperFunction,ViaPad*%
%ADD61C,0.500000*%
%TD*%
%TA.AperFunction,ViaPad*%
%ADD62C,0.700000*%
%TD*%
%TA.AperFunction,Conductor*%
%ADD63C,0.200000*%
%TD*%
%TA.AperFunction,Conductor*%
%ADD64C,0.300000*%
%TD*%
%TA.AperFunction,Conductor*%
%ADD65C,0.250000*%
%TD*%
%TA.AperFunction,Conductor*%
%ADD66C,0.320000*%
%TD*%
%TA.AperFunction,Conductor*%
%ADD67C,0.400000*%
%TD*%
%TA.AperFunction,Conductor*%
%ADD68C,0.150000*%
%TD*%
%TA.AperFunction,Conductor*%
%ADD69C,0.510000*%
%TD*%
%TA.AperFunction,Conductor*%
%ADD70C,0.180000*%
%TD*%
%TA.AperFunction,Conductor*%
%ADD71C,0.350000*%
%TD*%
G04 APERTURE END LIST*
D10*
X146400000Y-94980000D02*
G75*
G03*
X146400000Y-94980000I-100000J0D01*
G01*
D11*
%TO.P,EC20,1*%
%TO.N,Net-(EC20-Pad1)*%
X132490000Y-103765000D03*
%TO.P,EC20,2*%
%TO.N,GND*%
X132490000Y-105315000D03*
%TD*%
D12*
%TO.P,EC18,1*%
%TO.N,3V3*%
X142960000Y-107490000D03*
%TO.P,EC18,2*%
%TO.N,GND*%
X142960000Y-105590000D03*
%TD*%
D11*
%TO.P,AUC1,1*%
%TO.N,GND*%
X146860000Y-105625000D03*
%TO.P,AUC1,2*%
%TO.N,3V3*%
X146860000Y-107175000D03*
%TD*%
D13*
%TO.P,AR1,1*%
%TO.N,3V3*%
X160690000Y-89850000D03*
%TO.P,AR1,2*%
%TO.N,Net-(AR1-Pad2)*%
X160690000Y-91850000D03*
%TD*%
D14*
%TO.P,EC25,1*%
%TO.N,VDD_SPI*%
X149140000Y-102010000D03*
%TO.P,EC25,2*%
%TO.N,GND*%
X151040000Y-102010000D03*
%TD*%
D15*
%TO.P,LR1,1*%
%TO.N,IO36_LED_R*%
X141215000Y-86810000D03*
%TO.P,LR1,2*%
%TO.N,Net-(LED1-Pad3)*%
X142865000Y-86810000D03*
%TD*%
D16*
%TO.P,EXP_R2,1*%
%TO.N,GPIO06_EXT_PLUG2*%
X128185000Y-95850000D03*
%TO.P,EXP_R2,2*%
%TO.N,Net-(J1-Pad8)*%
X126535000Y-95850000D03*
%TD*%
D17*
%TO.P,ECY3,1,1*%
%TO.N,Net-(EC61-Pad1)*%
X133020000Y-95412500D03*
%TO.P,ECY3,2,2*%
%TO.N,GND*%
X135220000Y-95412500D03*
%TO.P,ECY3,3,3*%
%TO.N,Net-(EC60-Pad1)*%
X135220000Y-93612500D03*
%TO.P,ECY3,4,4*%
%TO.N,GND*%
X133020000Y-93612500D03*
%TD*%
D18*
%TO.P,EC60,1*%
%TO.N,Net-(EC60-Pad1)*%
X133255000Y-91730000D03*
%TO.P,EC60,2*%
%TO.N,GND*%
X131705000Y-91730000D03*
%TD*%
%TO.P,EC61,1*%
%TO.N,Net-(EC61-Pad1)*%
X133355000Y-97350000D03*
%TO.P,EC61,2*%
%TO.N,GND*%
X131805000Y-97350000D03*
%TD*%
D19*
%TO.P,ESP32S3,1,LNA_IN/RF*%
%TO.N,Net-(EC38-Pad1)*%
X136180894Y-100062202D03*
%TO.P,ESP32S3,2,VDD3P3*%
%TO.N,Net-(EC20-Pad1)*%
X136463737Y-100345045D03*
%TO.P,ESP32S3,3,VDD3P3*%
X136746579Y-100627887D03*
%TO.P,ESP32S3,4,CHIP_PU/RESET*%
%TO.N,CHIP_EN*%
X137029422Y-100910730D03*
%TO.P,ESP32S3,5,GPIO0/BOOT*%
%TO.N,ESP_GPIO0_BOOT-DTR*%
X137312265Y-101193573D03*
%TO.P,ESP32S3,6,GPIO1/ADC1_CH0*%
%TO.N,unconnected-(ESP32S3-Pad6)*%
X137595107Y-101476415D03*
%TO.P,ESP32S3,7,GPIO2/ADC1_CH1*%
%TO.N,GPIO2_PLUG_PWR_3V3*%
X137877950Y-101759258D03*
%TO.P,ESP32S3,8,GPIO3/ADC1_CH2*%
%TO.N,GND*%
X138160793Y-102042101D03*
%TO.P,ESP32S3,9,GPIO4/ADC1_CH3*%
%TO.N,unconnected-(ESP32S3-Pad9)*%
X138443636Y-102324944D03*
%TO.P,ESP32S3,10,GPIO5/ADC1_CH4*%
%TO.N,GPIO10_EXT_PLUG1*%
X138726478Y-102607786D03*
%TO.P,ESP32S3,11,GPIO6/ADC1_CH5*%
%TO.N,GPIO06_EXT_PLUG2*%
X139009321Y-102890629D03*
%TO.P,ESP32S3,12,GPIO7/ADC1_CH6*%
%TO.N,VOLTAGE_REF*%
X139292164Y-103173472D03*
%TO.P,ESP32S3,13,GPIO8/ADC1_CH7*%
%TO.N,GPIO8_I2C_SDA*%
X139575006Y-103456314D03*
%TO.P,ESP32S3,14,GPIO9/ADC1_CH8*%
%TO.N,GPIO9_I2C_SCL*%
X139857849Y-103739157D03*
D20*
%TO.P,ESP32S3,15,GPIO10/ADC1_CH9*%
%TO.N,unconnected-(ESP32S3-Pad15)*%
X141042253Y-103739157D03*
%TO.P,ESP32S3,16,GPIO11/ADC2_CH0*%
%TO.N,unconnected-(ESP32S3-Pad16)*%
X141325096Y-103456314D03*
%TO.P,ESP32S3,17,GPIO12/ADC2_CH1*%
%TO.N,unconnected-(ESP32S3-Pad17)*%
X141607938Y-103173472D03*
%TO.P,ESP32S3,18,GPIO13/ADC2_CH2*%
%TO.N,unconnected-(ESP32S3-Pad18)*%
X141890781Y-102890629D03*
%TO.P,ESP32S3,19,GPIO14/ADC2_CH3*%
%TO.N,unconnected-(ESP32S3-Pad19)*%
X142173624Y-102607786D03*
%TO.P,ESP32S3,20,VDD3P3_RTC*%
%TO.N,3V3*%
X142456466Y-102324944D03*
%TO.P,ESP32S3,21,GPIO15/ADC2_CH4/XTAL_32K_P*%
%TO.N,Net-(EC51-Pad1)*%
X142739309Y-102042101D03*
%TO.P,ESP32S3,22,GPIO16/ADC2_CH5/XTAL_32K_N*%
%TO.N,Net-(EC50-Pad1)*%
X143022152Y-101759258D03*
%TO.P,ESP32S3,23,GPIO17/ADC2_CH6/DAC_2*%
%TO.N,unconnected-(ESP32S3-Pad23)*%
X143304995Y-101476415D03*
%TO.P,ESP32S3,24,GPIO18/ADC2_CH7/DAC_1*%
%TO.N,unconnected-(ESP32S3-Pad24)*%
X143587837Y-101193573D03*
%TO.P,ESP32S3,25,GPIO19/USB_D-/ADC2_CH8*%
%TO.N,USB_D-*%
X143870680Y-100910730D03*
%TO.P,ESP32S3,26,GPIO20/USB_D+/ADC2_CH9*%
%TO.N,USB_D+*%
X144153523Y-100627887D03*
%TO.P,ESP32S3,27,GPIO21*%
%TO.N,unconnected-(ESP32S3-Pad27)*%
X144436365Y-100345045D03*
%TO.P,ESP32S3,28,SPI_CS1/GPIO26*%
%TO.N,SPICS1*%
X144719208Y-100062202D03*
D19*
%TO.P,ESP32S3,29,VDD_SPI*%
%TO.N,VDD_SPI*%
X144719208Y-98877798D03*
%TO.P,ESP32S3,30,SPIHD/GPIO27*%
%TO.N,SPIHD*%
X144436365Y-98594955D03*
%TO.P,ESP32S3,31,SPIWP/GPIO28*%
%TO.N,SPIWP*%
X144153523Y-98312113D03*
%TO.P,ESP32S3,32,SPICS0/GPIO29*%
%TO.N,SPICS0*%
X143870680Y-98029270D03*
%TO.P,ESP32S3,33,SPICLK/GPIO30*%
%TO.N,SPICLK*%
X143587837Y-97746427D03*
%TO.P,ESP32S3,34,SPIQ/GPIO31*%
%TO.N,SPIQ*%
X143304995Y-97463585D03*
%TO.P,ESP32S3,35,SPID/GPIO32*%
%TO.N,SPID*%
X143022152Y-97180742D03*
%TO.P,ESP32S3,36,SPICLK_N/GPIO48*%
%TO.N,unconnected-(ESP32S3-Pad36)*%
X142739309Y-96897899D03*
%TO.P,ESP32S3,37,SPICLK_P/GPIO47*%
%TO.N,unconnected-(ESP32S3-Pad37)*%
X142456466Y-96615056D03*
%TO.P,ESP32S3,38,GPIO33*%
%TO.N,unconnected-(ESP32S3-Pad38)*%
X142173624Y-96332214D03*
%TO.P,ESP32S3,39,GPIO34*%
%TO.N,IO34_LED_B*%
X141890781Y-96049371D03*
%TO.P,ESP32S3,40,GPIO35*%
%TO.N,IO35_LED_G*%
X141607938Y-95766528D03*
%TO.P,ESP32S3,41,GPIO36*%
%TO.N,IO36_LED_R*%
X141325096Y-95483686D03*
%TO.P,ESP32S3,42,GPIO37*%
%TO.N,unconnected-(ESP32S3-Pad42)*%
X141042253Y-95200843D03*
D20*
%TO.P,ESP32S3,43,GPIO38*%
%TO.N,GPIO38_IMU_CS*%
X139857849Y-95200843D03*
%TO.P,ESP32S3,44,MTCK/JTAG/GPIO39*%
%TO.N,unconnected-(ESP32S3-Pad44)*%
X139575006Y-95483686D03*
%TO.P,ESP32S3,45,MTDO/JTAG/GPIO40*%
%TO.N,unconnected-(ESP32S3-Pad45)*%
X139292164Y-95766528D03*
%TO.P,ESP32S3,46,VDD3P3_CPU*%
%TO.N,3V3*%
X139009321Y-96049371D03*
%TO.P,ESP32S3,47,MTDI/JTAG/GPIO41*%
%TO.N,unconnected-(ESP32S3-Pad47)*%
X138726478Y-96332214D03*
%TO.P,ESP32S3,48,MTMS/JTAG/GPIO42*%
%TO.N,unconnected-(ESP32S3-Pad48)*%
X138443636Y-96615056D03*
%TO.P,ESP32S3,49,U0TXD/PROG/GPIO43*%
%TO.N,Net-(ER2-Pad2)*%
X138160793Y-96897899D03*
%TO.P,ESP32S3,50,U0RXD/PROG/GPIO44*%
%TO.N,RXD0*%
X137877950Y-97180742D03*
%TO.P,ESP32S3,51,GPIO45*%
%TO.N,GND*%
X137595107Y-97463585D03*
%TO.P,ESP32S3,52,GPIO46*%
%TO.N,ESP_GPIO0_BOOT-DTR*%
X137312265Y-97746427D03*
%TO.P,ESP32S3,53,XTAL_N*%
%TO.N,Net-(EC60-Pad1)*%
X137029422Y-98029270D03*
%TO.P,ESP32S3,54,XTAL_P*%
%TO.N,Net-(EC61-Pad1)*%
X136746579Y-98312113D03*
%TO.P,ESP32S3,55,VDDA*%
%TO.N,3V3*%
X136463737Y-98594955D03*
%TO.P,ESP32S3,56,VDDA*%
X136180894Y-98877798D03*
D21*
%TO.P,ESP32S3,57,GND*%
%TO.N,GND*%
X140450051Y-99470000D03*
%TD*%
D22*
%TO.P,ER1,1*%
%TO.N,3V3*%
X138220000Y-107567500D03*
%TO.P,ER1,2*%
%TO.N,CHIP_EN*%
X138220000Y-105917500D03*
%TD*%
D15*
%TO.P,ER3,1*%
%TO.N,3V3*%
X121625000Y-90270000D03*
%TO.P,ER3,2*%
%TO.N,ESP_GPIO0_BOOT-DTR*%
X123275000Y-90270000D03*
%TD*%
D23*
%TO.P,EC38,1*%
%TO.N,Net-(EC38-Pad1)*%
X126415000Y-105320000D03*
%TO.P,EC38,2*%
%TO.N,GND*%
X127965000Y-105320000D03*
%TD*%
D24*
%TO.P,J2,1,VBUS*%
%TO.N,5V0*%
X157325000Y-102330000D03*
%TO.P,J2,2,D-*%
%TO.N,USB_D-*%
X157325000Y-101530000D03*
%TO.P,J2,3,D+*%
%TO.N,USB_D+*%
X157330000Y-100725000D03*
%TO.P,J2,4,ID*%
%TO.N,unconnected-(J2-Pad4)*%
X157320000Y-99935000D03*
%TO.P,J2,5,GND*%
%TO.N,GND*%
X157330000Y-99155000D03*
D25*
%TO.P,J2,6,Shield*%
X156990000Y-97160000D03*
X160470000Y-97140000D03*
X160470000Y-104360000D03*
X157000000Y-104350000D03*
%TD*%
D26*
%TO.P,SHC1,1*%
%TO.N,GND*%
X160450000Y-107535000D03*
%TO.P,SHC1,2*%
%TO.N,3V3*%
X160450000Y-105985000D03*
%TD*%
D22*
%TO.P,PSR1,1*%
%TO.N,SPICS1*%
X145540000Y-91285000D03*
%TO.P,PSR1,2*%
%TO.N,VDD_SPI*%
X145540000Y-89635000D03*
%TD*%
D27*
%TO.P,SH1,1,SDA*%
%TO.N,GPIO8_I2C_SDA*%
X157010000Y-108635000D03*
%TO.P,SH1,2,ADDR*%
%TO.N,GND*%
X157510000Y-108635000D03*
%TO.P,SH1,3,ALERT*%
%TO.N,unconnected-(SH1-Pad3)*%
X158010000Y-108635000D03*
%TO.P,SH1,4,SCL*%
%TO.N,GPIO9_I2C_SCL*%
X158510000Y-108635000D03*
%TO.P,SH1,5,VDD*%
%TO.N,3V3*%
X158510000Y-106285000D03*
%TO.P,SH1,6,~{RESET}*%
%TO.N,unconnected-(SH1-Pad6)*%
X158010000Y-106285000D03*
%TO.P,SH1,7,R*%
%TO.N,unconnected-(SH1-Pad7)*%
X157510000Y-106285000D03*
%TO.P,SH1,8,VSS*%
%TO.N,GND*%
X157010000Y-106285000D03*
D28*
%TO.P,SH1,9,VSS*%
X157760000Y-107460000D03*
%TD*%
D29*
%TO.P,J20,1,GND*%
%TO.N,GND*%
X117020000Y-103460000D03*
%TO.P,J20,2,GND*%
X119970000Y-103460000D03*
D30*
%TO.P,J20,3,SIG*%
%TO.N,unconnected-(J20-Pad3)*%
X118495000Y-105010000D03*
%TD*%
D23*
%TO.P,EC26,1*%
%TO.N,3V3*%
X144875000Y-103770000D03*
%TO.P,EC26,2*%
%TO.N,GND*%
X146425000Y-103770000D03*
%TD*%
D31*
%TO.P,AC1,1*%
%TO.N,3V3*%
X154357500Y-87190000D03*
%TO.P,AC1,2*%
%TO.N,GND*%
X152282500Y-87190000D03*
%TD*%
D12*
%TO.P,EC40,1*%
%TO.N,GND*%
X136280000Y-105520000D03*
%TO.P,EC40,2*%
%TO.N,CHIP_EN*%
X136280000Y-103620000D03*
%TD*%
D16*
%TO.P,EXP_R1,1*%
%TO.N,GPIO06_EXT_PLUG2*%
X128305000Y-94100000D03*
%TO.P,EXP_R1,2*%
%TO.N,Net-(J1-Pad6)*%
X126655000Y-94100000D03*
%TD*%
D32*
%TO.P,TP2,1,1*%
%TO.N,3V3*%
X150660000Y-87530000D03*
%TD*%
D12*
%TO.P,EC17,1*%
%TO.N,3V3*%
X144870000Y-107470000D03*
%TO.P,EC17,2*%
%TO.N,GND*%
X144870000Y-105570000D03*
%TD*%
D33*
%TO.P,AL1,1,1*%
%TO.N,3V3*%
X157020000Y-87400000D03*
%TO.P,AL1,2,2*%
%TO.N,Net-(AL1-Pad2)*%
X159820000Y-87400000D03*
%TD*%
D34*
%TO.P,EPS1,1,~{CE}*%
%TO.N,SPICS1*%
X147715000Y-89825000D03*
%TO.P,EPS1,2,SIO1*%
%TO.N,SPIQ*%
X147715000Y-91095000D03*
%TO.P,EPS1,3,SIO2*%
%TO.N,SPIWP*%
X147715000Y-92365000D03*
%TO.P,EPS1,4,VSS*%
%TO.N,GND*%
X147715000Y-93635000D03*
%TO.P,EPS1,5,SiO0*%
%TO.N,SPID*%
X152665000Y-93635000D03*
%TO.P,EPS1,6,SCLK*%
%TO.N,SPICLK*%
X152665000Y-92365000D03*
%TO.P,EPS1,7,SIO3*%
%TO.N,SPIHD*%
X152665000Y-91095000D03*
%TO.P,EPS1,8,VCC*%
%TO.N,VDD_SPI*%
X152665000Y-89825000D03*
%TD*%
D15*
%TO.P,ICR1,1*%
%TO.N,3V3*%
X133175000Y-86890000D03*
%TO.P,ICR1,2*%
%TO.N,GPIO9_I2C_SCL*%
X134825000Y-86890000D03*
%TD*%
D35*
%TO.P,ANT1,1,1*%
%TO.N,Net-(ANT1-Pad1)*%
X119040000Y-107880000D03*
%TO.P,ANT1,2,2*%
%TO.N,unconnected-(ANT1-Pad2)*%
X128540000Y-107880000D03*
%TD*%
D23*
%TO.P,EC16,1*%
%TO.N,3V3*%
X138975000Y-93570000D03*
%TO.P,EC16,2*%
%TO.N,GND*%
X140525000Y-93570000D03*
%TD*%
%TO.P,IMUC1,1*%
%TO.N,GND*%
X131685000Y-89870000D03*
%TO.P,IMUC1,2*%
%TO.N,3V3*%
X133235000Y-89870000D03*
%TD*%
D16*
%TO.P,EXP_R3,1*%
%TO.N,GPIO06_EXT_PLUG2*%
X128155000Y-97630000D03*
%TO.P,EXP_R3,2*%
%TO.N,Net-(J1-Pad10)*%
X126505000Y-97630000D03*
%TD*%
D36*
%TO.P,Q5,1,G*%
%TO.N,Net-(Q5-Pad1)*%
X120040000Y-88397500D03*
%TO.P,Q5,2,S*%
%TO.N,3V3*%
X121940000Y-88397500D03*
%TO.P,Q5,3,D*%
%TO.N,3V3_PLUG*%
X120990000Y-86522500D03*
%TD*%
D16*
%TO.P,EXP_R4,1*%
%TO.N,GPIO06_EXT_PLUG2*%
X128185000Y-100050000D03*
%TO.P,EXP_R4,2*%
%TO.N,Net-(J1-Pad12)*%
X126535000Y-100050000D03*
%TD*%
D26*
%TO.P,EC51,1*%
%TO.N,Net-(EC51-Pad1)*%
X143720000Y-91475000D03*
%TO.P,EC51,2*%
%TO.N,GND*%
X143720000Y-89925000D03*
%TD*%
D23*
%TO.P,EC15,1*%
%TO.N,GND*%
X131925000Y-101070000D03*
%TO.P,EC15,2*%
%TO.N,3V3*%
X133475000Y-101070000D03*
%TD*%
D32*
%TO.P,TP3,1,1*%
%TO.N,GND*%
X124450000Y-102705000D03*
%TD*%
D15*
%TO.P,IDR1,1*%
%TO.N,GPIO8_I2C_SDA*%
X137455000Y-86900000D03*
%TO.P,IDR1,2*%
%TO.N,3V3*%
X139105000Y-86900000D03*
%TD*%
D22*
%TO.P,QR1,1*%
%TO.N,GPIO2_PLUG_PWR_3V3*%
X118350000Y-88605000D03*
%TO.P,QR1,2*%
%TO.N,Net-(Q5-Pad1)*%
X118350000Y-86955000D03*
%TD*%
D37*
%TO.P,L2,1,1*%
%TO.N,3V3*%
X134480000Y-105672500D03*
%TO.P,L2,2,2*%
%TO.N,Net-(EC20-Pad1)*%
X134480000Y-103547500D03*
%TD*%
D31*
%TO.P,AC2,1*%
%TO.N,5V0*%
X158987500Y-95470000D03*
%TO.P,AC2,2*%
%TO.N,GND*%
X156912500Y-95470000D03*
%TD*%
D38*
%TO.P,LED1,1,GA*%
%TO.N,IO35_LED_G*%
X145230000Y-87700000D03*
%TO.P,LED1,2,BA*%
%TO.N,IO34_LED_B*%
X148410000Y-87710000D03*
%TO.P,LED1,3,RA*%
%TO.N,Net-(LED1-Pad3)*%
X145230000Y-86560000D03*
%TO.P,LED1,4,K*%
%TO.N,3V3*%
X148420000Y-86590000D03*
%TD*%
D18*
%TO.P,EC19,1*%
%TO.N,3V3*%
X134205000Y-107260000D03*
%TO.P,EC19,2*%
%TO.N,GND*%
X132655000Y-107260000D03*
%TD*%
D39*
%TO.P,,1*%
%TO.N,N/C*%
X142930000Y-108670000D03*
%TD*%
D14*
%TO.P,EC14,1*%
%TO.N,GND*%
X131880000Y-99220000D03*
%TO.P,EC14,2*%
%TO.N,3V3*%
X133780000Y-99220000D03*
%TD*%
D40*
%TO.P,REF\u002A\u002A,1*%
%TO.N,N/C*%
X155530000Y-98650000D03*
%TD*%
D41*
%TO.P,AU1,1,FB*%
%TO.N,Net-(AR1-Pad2)*%
X158440000Y-90290000D03*
%TO.P,AU1,2,GND*%
%TO.N,GND*%
X157500000Y-90295000D03*
D42*
X157475000Y-92010000D03*
D41*
%TO.P,AU1,3,SW*%
%TO.N,Net-(AL1-Pad2)*%
X156515000Y-90295000D03*
D43*
%TO.P,AU1,4,VIN_SW*%
%TO.N,5V0*%
X156545000Y-93685000D03*
%TO.P,AU1,5,VIN_A*%
X157460000Y-93680000D03*
%TO.P,AU1,6,EN*%
X158420000Y-93680000D03*
%TD*%
D44*
%TO.P,I2C2,1,Pin_1*%
%TO.N,GND*%
X121140000Y-97050000D03*
%TO.P,I2C2,2,Pin_2*%
%TO.N,3V3_PLUG*%
X121140000Y-98050000D03*
%TO.P,I2C2,3,Pin_3*%
%TO.N,GPIO9_I2C_SCL*%
X121140000Y-99050000D03*
%TO.P,I2C2,4,Pin_4*%
%TO.N,ADC_OUT*%
X121140000Y-100050000D03*
D45*
%TO.P,I2C2,MP*%
%TO.N,N/C*%
X117265000Y-101350000D03*
X117265000Y-95750000D03*
%TD*%
D26*
%TO.P,EC50,1*%
%TO.N,Net-(EC50-Pad1)*%
X138620000Y-91575000D03*
%TO.P,EC50,2*%
%TO.N,GND*%
X138620000Y-90025000D03*
%TD*%
D46*
%TO.P,ESP_FLASH1,1,~{CS}*%
%TO.N,SPICS0*%
X146395000Y-95755000D03*
%TO.P,ESP_FLASH1,2,DO(IO1)*%
%TO.N,SPIQ*%
X146395000Y-97025000D03*
%TO.P,ESP_FLASH1,3,IO2*%
%TO.N,SPIWP*%
X146395000Y-98295000D03*
%TO.P,ESP_FLASH1,4,GND*%
%TO.N,GND*%
X146395000Y-99565000D03*
%TO.P,ESP_FLASH1,5,DI(IO0)*%
%TO.N,SPID*%
X154185000Y-99565000D03*
%TO.P,ESP_FLASH1,6,CLK*%
%TO.N,SPICLK*%
X154185000Y-98295000D03*
%TO.P,ESP_FLASH1,7,IO3*%
%TO.N,SPIHD*%
X154185000Y-97025000D03*
%TO.P,ESP_FLASH1,8,VCC*%
%TO.N,VDD_SPI*%
X154185000Y-95755000D03*
%TD*%
D26*
%TO.P,EC37,1*%
%TO.N,Net-(ANT1-Pad1)*%
X122320000Y-103735000D03*
%TO.P,EC37,2*%
%TO.N,GND*%
X122320000Y-102185000D03*
%TD*%
D47*
%TO.P,EL4,1,1*%
%TO.N,Net-(ANT1-Pad1)*%
X122087500Y-105430000D03*
%TO.P,EL4,2,2*%
%TO.N,Net-(EC38-Pad1)*%
X124212500Y-105430000D03*
%TD*%
D13*
%TO.P,AR2,1*%
%TO.N,Net-(AR1-Pad2)*%
X160750000Y-93460000D03*
%TO.P,AR2,2*%
%TO.N,GND*%
X160750000Y-95460000D03*
%TD*%
D44*
%TO.P,J3,1,Pin_1*%
%TO.N,5V0*%
X121080000Y-91840000D03*
%TO.P,J3,2,Pin_2*%
%TO.N,GND*%
X121080000Y-92840000D03*
D45*
%TO.P,J3,3*%
%TO.N,N/C*%
X117205000Y-94140000D03*
X117205000Y-90540000D03*
%TD*%
D48*
%TO.P,,1*%
%TO.N,N/C*%
X130430000Y-105980000D03*
%TD*%
D49*
%TO.P,J1,1,Pin_1*%
%TO.N,ADC_OUT*%
X123205000Y-92335000D03*
D50*
%TO.P,J1,2,Pin_2*%
%TO.N,GPIO8_I2C_SDA*%
X124475000Y-92335000D03*
%TO.P,J1,3,Pin_3*%
%TO.N,ADC_OUT*%
X123205000Y-93605000D03*
%TO.P,J1,4,Pin_4*%
%TO.N,GPIO06_EXT_PLUG2*%
X124475000Y-93605000D03*
%TO.P,J1,5,Pin_5*%
%TO.N,GND*%
X123205000Y-94875000D03*
%TO.P,J1,6,Pin_6*%
%TO.N,Net-(J1-Pad6)*%
X124475000Y-94875000D03*
%TO.P,J1,7,Pin_7*%
%TO.N,GND*%
X123205000Y-96145000D03*
%TO.P,J1,8,Pin_8*%
%TO.N,Net-(J1-Pad8)*%
X124475000Y-96145000D03*
%TO.P,J1,9,Pin_9*%
%TO.N,GND*%
X123205000Y-97415000D03*
%TO.P,J1,10,Pin_10*%
%TO.N,Net-(J1-Pad10)*%
X124475000Y-97415000D03*
%TO.P,J1,11,Pin_11*%
%TO.N,GND*%
X123205000Y-98685000D03*
%TO.P,J1,12,Pin_12*%
%TO.N,Net-(J1-Pad12)*%
X124475000Y-98685000D03*
%TD*%
D51*
%TO.P,REF\u002A\u002A,1*%
%TO.N,N/C*%
X118765000Y-105305000D03*
%TO.P,REF\u002A\u002A,2*%
X119390000Y-105310000D03*
%TD*%
D52*
%TO.P,,1*%
%TO.N,N/C*%
X142890000Y-88610000D03*
%TD*%
D53*
%TO.P,REF\u002A\u002A,1*%
%TO.N,N/C*%
X130430000Y-95190000D03*
%TD*%
D54*
%TO.P,U2,1*%
%TO.N,N/C*%
X153870000Y-107585000D03*
%TO.P,U2,2*%
X153870000Y-106315000D03*
%TO.P,U2,3*%
X153870000Y-105045000D03*
%TO.P,U2,4,GND*%
%TO.N,GND*%
X153870000Y-103775000D03*
%TO.P,U2,5,SDA*%
%TO.N,GPIO8_I2C_SDA*%
X148930000Y-103775000D03*
%TO.P,U2,6,SCL*%
%TO.N,GPIO9_I2C_SCL*%
X148930000Y-105045000D03*
%TO.P,U2,7*%
%TO.N,N/C*%
X148930000Y-106315000D03*
%TO.P,U2,8,VCC*%
%TO.N,3V3*%
X148930000Y-107585000D03*
%TD*%
D55*
%TO.P,IMU1,1,SDO/SA0*%
%TO.N,unconnected-(IMU1-Pad1)*%
X136760000Y-89655000D03*
%TO.P,IMU1,2,SDX*%
%TO.N,unconnected-(IMU1-Pad2)*%
X136260000Y-89655000D03*
%TO.P,IMU1,3,SCX*%
%TO.N,unconnected-(IMU1-Pad3)*%
X135760000Y-89655000D03*
%TO.P,IMU1,4,INT1*%
%TO.N,unconnected-(IMU1-Pad4)*%
X135260000Y-89655000D03*
D56*
%TO.P,IMU1,5,VDDIO*%
%TO.N,3V3*%
X135085000Y-90330000D03*
%TO.P,IMU1,6,GND*%
%TO.N,GND*%
X135085000Y-90830000D03*
%TO.P,IMU1,7,GND*%
X135085000Y-91330000D03*
D55*
%TO.P,IMU1,8,VDD*%
%TO.N,3V3*%
X135260000Y-92005000D03*
%TO.P,IMU1,9,INT2*%
%TO.N,unconnected-(IMU1-Pad9)*%
X135760000Y-92005000D03*
%TO.P,IMU1,10,NC*%
%TO.N,unconnected-(IMU1-Pad10)*%
X136260000Y-92005000D03*
%TO.P,IMU1,11,NC*%
%TO.N,unconnected-(IMU1-Pad11)*%
X136760000Y-92005000D03*
D56*
%TO.P,IMU1,12,CS*%
%TO.N,GPIO38_IMU_CS*%
X136935000Y-91330000D03*
%TO.P,IMU1,13,SCL*%
%TO.N,GPIO9_I2C_SCL*%
X136935000Y-90830000D03*
%TO.P,IMU1,14,SDA*%
%TO.N,GPIO8_I2C_SDA*%
X136935000Y-90330000D03*
%TD*%
D15*
%TO.P,ER2,1*%
%TO.N,TXD0*%
X126695000Y-91900000D03*
%TO.P,ER2,2*%
%TO.N,Net-(ER2-Pad2)*%
X128345000Y-91900000D03*
%TD*%
D18*
%TO.P,EC24,1*%
%TO.N,VDD_SPI*%
X154175000Y-101980000D03*
%TO.P,EC24,2*%
%TO.N,GND*%
X152625000Y-101980000D03*
%TD*%
D57*
%TO.P,ECY2,1,1*%
%TO.N,Net-(EC51-Pad1)*%
X142060000Y-92000000D03*
%TO.P,ECY2,2,2*%
%TO.N,GND*%
X142060000Y-89800000D03*
%TO.P,ECY2,3,3*%
%TO.N,Net-(EC50-Pad1)*%
X140260000Y-89800000D03*
%TO.P,ECY2,4,4*%
%TO.N,GND*%
X140260000Y-92000000D03*
%TD*%
D32*
%TO.P,TP1,1,1*%
%TO.N,5V0*%
X131290000Y-86530000D03*
%TD*%
D58*
%TO.P,ICSP1,5,Pin_5*%
%TO.N,CHIP_EN*%
X124465000Y-87150500D03*
%TO.P,ICSP1,6,Pin_6*%
%TO.N,ESP_GPIO0_BOOT-DTR*%
X125735000Y-87150500D03*
%TO.P,ICSP1,7,Pin_7*%
%TO.N,unconnected-(ICSP1-Pad7)*%
X127005000Y-87150500D03*
%TO.P,ICSP1,8,Pin_8*%
%TO.N,3V3*%
X128275000Y-87150500D03*
%TD*%
D59*
%TO.N,GND*%
X143280000Y-99230000D03*
D60*
X138670000Y-88630000D03*
X152640000Y-100989500D03*
X136010000Y-90800000D03*
D59*
X117430000Y-99150000D03*
X140460000Y-96390000D03*
X142030000Y-100500000D03*
X121390000Y-95900000D03*
X140810000Y-101870000D03*
D61*
X139360000Y-106450000D03*
D59*
X139430000Y-100410000D03*
X138110000Y-98950000D03*
D60*
X130530000Y-95260000D03*
D59*
X130440000Y-108690000D03*
D60*
X152330000Y-88540000D03*
D61*
X148180000Y-95930000D03*
D60*
X130410000Y-103290000D03*
D61*
X136320000Y-106470000D03*
X132440000Y-101950000D03*
D60*
X147580000Y-103110000D03*
X130460000Y-101500000D03*
D59*
X141860000Y-97750000D03*
D60*
X136440000Y-95270000D03*
X130520000Y-88730000D03*
D61*
X148590000Y-99620000D03*
D59*
X139210000Y-97790000D03*
D60*
X145860000Y-104830000D03*
D59*
X159400000Y-92680000D03*
D61*
X142030000Y-88630000D03*
X133270000Y-106360000D03*
D59*
X140630000Y-99060000D03*
D61*
X141500000Y-94330000D03*
D60*
X135360000Y-88600000D03*
%TO.N,VOLTAGE_REF*%
X138040000Y-104620000D03*
D61*
%TO.N,Net-(EC50-Pad1)*%
X141110000Y-90830000D03*
X143940000Y-102670000D03*
%TO.N,Net-(EC51-Pad1)*%
X143410000Y-103280000D03*
X142030000Y-93110000D03*
D62*
%TO.N,3V3*%
X141680000Y-105780000D03*
D60*
X155340000Y-87610000D03*
D59*
X132090000Y-87750000D03*
D61*
X145880000Y-107350000D03*
D62*
X141670000Y-106550000D03*
D60*
X135680000Y-99280000D03*
D61*
X134390000Y-89790000D03*
D60*
X138640000Y-95030000D03*
X149590000Y-87250000D03*
D61*
X146050000Y-107990000D03*
D60*
X161100000Y-88540000D03*
D59*
X131120000Y-87730000D03*
D61*
X142640000Y-103490000D03*
D60*
X155230000Y-86110000D03*
X159250000Y-105910000D03*
D61*
%TO.N,CHIP_EN*%
X129630000Y-96610000D03*
X136220000Y-101710000D03*
%TO.N,ESP_GPIO0_BOOT-DTR*%
X136770000Y-102200000D03*
X135990000Y-96810000D03*
X125330000Y-89280000D03*
X125560000Y-91180000D03*
D60*
%TO.N,GPIO8_I2C_SDA*%
X151870000Y-105810000D03*
X139050000Y-104730000D03*
D61*
X137440000Y-89740000D03*
D60*
X150510000Y-103940000D03*
D61*
X156260000Y-106060000D03*
X156280000Y-107760000D03*
X138010000Y-87690000D03*
D60*
%TO.N,USB_D-*%
X147920000Y-102330000D03*
X158910000Y-101530000D03*
D61*
%TO.N,SPIHD*%
X150460000Y-95660000D03*
X153940000Y-94990000D03*
%TO.N,SPICLK*%
X145340000Y-96210000D03*
X152950000Y-94940000D03*
%TO.N,SPID*%
X145630000Y-94510000D03*
X151910000Y-94420000D03*
D60*
%TO.N,USB_D+*%
X147830000Y-101490000D03*
X158953153Y-100731663D03*
%TO.N,TXD0*%
X127280000Y-90580000D03*
%TO.N,RXD0*%
X137350000Y-94490000D03*
D61*
X124530000Y-90330000D03*
X126290000Y-90530000D03*
%TO.N,GPIO9_I2C_SCL*%
X119860000Y-98930000D03*
X135800000Y-87620000D03*
D60*
X159150000Y-107810000D03*
X140080000Y-104420000D03*
D61*
X137690000Y-90820000D03*
D60*
X150530000Y-105060000D03*
%TO.N,Net-(ER2-Pad2)*%
X128490000Y-90600000D03*
X137430000Y-93580000D03*
D61*
%TO.N,SPICS1*%
X146800000Y-100730000D03*
X149160000Y-100230000D03*
%TO.N,IO35_LED_G*%
X144060000Y-87670000D03*
D60*
X144890000Y-92370000D03*
%TO.N,5V0*%
X120330000Y-90750000D03*
X130210000Y-86210000D03*
D59*
X159330000Y-98200000D03*
D60*
%TO.N,IO34_LED_B*%
X145650000Y-92800000D03*
D61*
X147170000Y-87810000D03*
D60*
%TO.N,IO36_LED_R*%
X144110000Y-92680000D03*
D61*
X141600000Y-87910000D03*
D60*
%TO.N,GPIO06_EXT_PLUG2*%
X137950000Y-103710000D03*
D61*
X128390000Y-98920000D03*
%TO.N,GPIO38_IMU_CS*%
X137450000Y-92080000D03*
X139750000Y-94540000D03*
%TO.N,GPIO2_PLUG_PWR_3V3*%
X137340000Y-102790000D03*
D60*
X129610000Y-98860000D03*
%TO.N,3V3_PLUG*%
X119440000Y-90210000D03*
%TD*%
D63*
%TO.N,GND*%
X147550000Y-104530000D02*
X146860000Y-105220000D01*
D64*
X133760000Y-108670000D02*
X130980000Y-108670000D01*
D65*
X152640000Y-101745000D02*
X152640000Y-101060000D01*
D64*
X155460000Y-88560000D02*
X155460000Y-90390000D01*
D63*
X129060000Y-101630000D02*
X129120000Y-101690000D01*
D66*
X160470000Y-95740000D02*
X160750000Y-95460000D01*
D63*
X137530000Y-108720000D02*
X137480000Y-108670000D01*
D65*
X140450000Y-93260000D02*
X140450000Y-92510000D01*
D64*
X131438750Y-93610000D02*
X132941250Y-93610000D01*
D63*
X130460000Y-101500000D02*
X130460000Y-88700000D01*
D64*
X145160000Y-108670000D02*
X145720000Y-108670000D01*
D66*
X159320000Y-92870000D02*
X159320000Y-92580000D01*
D67*
X131660000Y-101170000D02*
X132380000Y-101890000D01*
D63*
X131570000Y-97630000D02*
X131570000Y-97120000D01*
X130440000Y-88730000D02*
X130440000Y-101480000D01*
D65*
X144810000Y-108670000D02*
X142930000Y-108670000D01*
X146590000Y-103850000D02*
X146590000Y-103580000D01*
D64*
X130460000Y-101500000D02*
X130460000Y-101050000D01*
D67*
X118970000Y-101280000D02*
X117520000Y-101280000D01*
D64*
X155460000Y-94370000D02*
X155460000Y-98560000D01*
D65*
X140220000Y-92040000D02*
X140260000Y-92000000D01*
D64*
X130460000Y-97230000D02*
X130460000Y-88700000D01*
X155460000Y-108620000D02*
X155490000Y-108650000D01*
D65*
X159250000Y-107090000D02*
X159350000Y-107090000D01*
D63*
X148190000Y-94110000D02*
X148190000Y-95980000D01*
D64*
X131830000Y-99030000D02*
X131830000Y-100890000D01*
D63*
X152460000Y-103060000D02*
X152510000Y-103110000D01*
D64*
X130440000Y-108690000D02*
X130440000Y-104470000D01*
D63*
X147840000Y-103060000D02*
X152460000Y-103060000D01*
D65*
X157020000Y-105875000D02*
X157020000Y-105310000D01*
X145120000Y-105570000D02*
X145850000Y-104840000D01*
X157020000Y-104370000D02*
X157000000Y-104350000D01*
D64*
X121320000Y-94070000D02*
X121320000Y-92750000D01*
D65*
X152450000Y-103050000D02*
X152510000Y-103110000D01*
D64*
X121320000Y-96880000D02*
X121260000Y-96940000D01*
X117445000Y-99365000D02*
X117445000Y-99805000D01*
D63*
X135760000Y-95640000D02*
X135760000Y-95487500D01*
D67*
X124510000Y-102645000D02*
X124450000Y-102705000D01*
D63*
X133100000Y-88590000D02*
X132500000Y-88590000D01*
D67*
X131660000Y-100910000D02*
X131660000Y-101170000D01*
D65*
X143670000Y-89800000D02*
X143720000Y-89750000D01*
X141530000Y-94410000D02*
X140690000Y-93570000D01*
D63*
X130570000Y-88590000D02*
X130480000Y-88680000D01*
X131850000Y-88695000D02*
X131850000Y-93590000D01*
D64*
X155460000Y-98560000D02*
X155460000Y-103390000D01*
D65*
X142060000Y-89800000D02*
X143670000Y-89800000D01*
X132520000Y-106270000D02*
X132520000Y-105380000D01*
X144870000Y-105570000D02*
X145120000Y-105570000D01*
D64*
X155460000Y-90390000D02*
X155460000Y-91850000D01*
D67*
X157510000Y-92005000D02*
X157490000Y-92025000D01*
D63*
X138150051Y-99480000D02*
X139000051Y-99480000D01*
D64*
X138290000Y-108670000D02*
X137480000Y-108670000D01*
D65*
X159350000Y-107090000D02*
X159970000Y-107710000D01*
D63*
X136010000Y-90800000D02*
X136010000Y-90850000D01*
X152450000Y-102050000D02*
X152430000Y-102050000D01*
D65*
X157020000Y-105875000D02*
X157020000Y-104370000D01*
D67*
X156912500Y-95470000D02*
X156912500Y-97082500D01*
D65*
X138620000Y-88830000D02*
X138840000Y-88610000D01*
D64*
X130440000Y-95060000D02*
X130440000Y-93100000D01*
D63*
X146860000Y-105220000D02*
X146860000Y-105450000D01*
D66*
X160470000Y-104360000D02*
X160900000Y-103930000D01*
D67*
X156885000Y-104490000D02*
X155515000Y-104490000D01*
D63*
X130370000Y-97320000D02*
X130460000Y-97230000D01*
D64*
X134700000Y-108640000D02*
X134670000Y-108670000D01*
X134670000Y-108670000D02*
X133760000Y-108670000D01*
X153922500Y-103785000D02*
X155395000Y-103785000D01*
D66*
X160750000Y-95460000D02*
X160750000Y-95320000D01*
D63*
X134170000Y-88630000D02*
X134090000Y-88550000D01*
D65*
X130430000Y-103310000D02*
X130410000Y-103290000D01*
D67*
X157510000Y-90755000D02*
X157510000Y-92005000D01*
D64*
X117020000Y-103460000D02*
X117020000Y-101780000D01*
D63*
X135760000Y-95487500D02*
X134907500Y-95487500D01*
X137990000Y-102210000D02*
X140272101Y-99927899D01*
D67*
X129730000Y-101690000D02*
X124510000Y-101690000D01*
X124510000Y-101690000D02*
X124510000Y-102645000D01*
D64*
X131780000Y-88550000D02*
X130610000Y-88550000D01*
D63*
X131610000Y-97340000D02*
X130570000Y-97340000D01*
X136280000Y-106430000D02*
X136320000Y-106470000D01*
X133010000Y-88590000D02*
X132990000Y-88610000D01*
D65*
X144870000Y-105570000D02*
X142980000Y-105570000D01*
D67*
X156912500Y-97082500D02*
X156990000Y-97160000D01*
D64*
X130610000Y-88550000D02*
X130480000Y-88680000D01*
D63*
X130570000Y-97340000D02*
X130460000Y-97230000D01*
D67*
X129730000Y-101690000D02*
X130390000Y-101690000D01*
D64*
X131980000Y-88550000D02*
X131780000Y-88550000D01*
X155460000Y-108000000D02*
X155460000Y-108620000D01*
X117020000Y-103460000D02*
X119970000Y-103460000D01*
D63*
X142800000Y-88520000D02*
X142890000Y-88610000D01*
D65*
X142960000Y-105590000D02*
X142290000Y-104920000D01*
D64*
X130440000Y-104470000D02*
X130440000Y-103810000D01*
D67*
X157200000Y-99025000D02*
X157330000Y-99155000D01*
D65*
X133260000Y-106270000D02*
X132520000Y-106270000D01*
X140700000Y-93570000D02*
X140700000Y-93270000D01*
D63*
X136010000Y-90850000D02*
X135530000Y-91330000D01*
D64*
X155410000Y-88550000D02*
X151650000Y-88550000D01*
D67*
X152302500Y-87390000D02*
X152302500Y-88512500D01*
D64*
X155460000Y-93860000D02*
X155460000Y-94370000D01*
D63*
X147715000Y-93635000D02*
X148190000Y-94110000D01*
D64*
X117445000Y-99805000D02*
X117445000Y-96085000D01*
D63*
X130400000Y-95260000D02*
X130400000Y-97170000D01*
D67*
X156840000Y-104390000D02*
X160300000Y-104390000D01*
D64*
X138330000Y-108630000D02*
X138290000Y-108670000D01*
D65*
X138620000Y-89850000D02*
X138620000Y-88830000D01*
X139830000Y-106450000D02*
X139360000Y-106450000D01*
X157510000Y-107297500D02*
X157510000Y-108622500D01*
D63*
X142280000Y-88560000D02*
X152310000Y-88560000D01*
D65*
X140690000Y-93570000D02*
X140525000Y-93570000D01*
D63*
X146610000Y-99660000D02*
X148640000Y-99660000D01*
D65*
X153970000Y-103765000D02*
X153165000Y-103765000D01*
X132520000Y-105380000D02*
X132490000Y-105350000D01*
D64*
X135400000Y-88550000D02*
X134090000Y-88550000D01*
D65*
X130410000Y-103290000D02*
X129810000Y-103290000D01*
D67*
X119380000Y-101690000D02*
X118970000Y-101280000D01*
D64*
X117445000Y-99805000D02*
X117445000Y-101355000D01*
D63*
X146395000Y-99565000D02*
X146420000Y-99540000D01*
D67*
X157475000Y-92010000D02*
X155620000Y-92010000D01*
X155500000Y-103680000D02*
X155395000Y-103785000D01*
D63*
X138820000Y-88520000D02*
X142800000Y-88520000D01*
D66*
X160750000Y-95320000D02*
X159320000Y-93890000D01*
D63*
X151040000Y-102010000D02*
X152420000Y-102010000D01*
D64*
X117445000Y-99365000D02*
X117445000Y-100405000D01*
X130440000Y-95060000D02*
X130440000Y-88870000D01*
D63*
X132580000Y-88510000D02*
X132500000Y-88590000D01*
D64*
X155455000Y-108700000D02*
X154805000Y-108700000D01*
D63*
X136280000Y-105520000D02*
X136280000Y-106430000D01*
D67*
X157200000Y-96830000D02*
X157200000Y-99025000D01*
X117520000Y-101280000D02*
X117445000Y-101355000D01*
D64*
X130572500Y-93610000D02*
X131510000Y-93610000D01*
D63*
X135530000Y-91330000D02*
X135097500Y-91330000D01*
D64*
X130440000Y-93100000D02*
X130440000Y-88970000D01*
D65*
X142980000Y-105570000D02*
X142960000Y-105590000D01*
X140700000Y-105580000D02*
X139830000Y-106450000D01*
D64*
X135580000Y-108670000D02*
X145160000Y-108670000D01*
X131620000Y-100900000D02*
X131610000Y-100910000D01*
D65*
X130430000Y-105980000D02*
X130430000Y-103310000D01*
D67*
X152302500Y-88512500D02*
X152330000Y-88540000D01*
D65*
X132520000Y-106270000D02*
X132520000Y-107220000D01*
D64*
X155015000Y-103785000D02*
X153922500Y-103785000D01*
D65*
X159970000Y-107710000D02*
X160450000Y-107710000D01*
D64*
X136680000Y-88550000D02*
X135400000Y-88550000D01*
D65*
X152450000Y-101980000D02*
X152450000Y-103050000D01*
D64*
X117445000Y-96085000D02*
X117430000Y-96070000D01*
D65*
X141360000Y-104920000D02*
X140700000Y-105580000D01*
D63*
X132500000Y-88590000D02*
X130570000Y-88590000D01*
D66*
X159320000Y-92580000D02*
X158750000Y-92010000D01*
D64*
X117020000Y-101780000D02*
X117445000Y-101355000D01*
D63*
X147550000Y-103115000D02*
X147550000Y-104530000D01*
D66*
X159320000Y-93890000D02*
X159320000Y-92870000D01*
D64*
X130980000Y-108670000D02*
X130460000Y-108670000D01*
D63*
X137220000Y-88520000D02*
X138820000Y-88520000D01*
D64*
X130460000Y-108670000D02*
X130440000Y-108690000D01*
X130460000Y-101050000D02*
X130460000Y-100870000D01*
X155395000Y-103785000D02*
X155400000Y-103790000D01*
D65*
X157020000Y-105875000D02*
X157020000Y-106300000D01*
D64*
X121320000Y-94070000D02*
X121320000Y-96880000D01*
D63*
X146590000Y-104100000D02*
X145860000Y-104830000D01*
D67*
X124510000Y-101690000D02*
X119380000Y-101690000D01*
D65*
X142060000Y-89800000D02*
X142060000Y-88660000D01*
X157020000Y-105310000D02*
X157020000Y-106720000D01*
D63*
X145860000Y-104830000D02*
X145850000Y-104840000D01*
X133100000Y-88590000D02*
X133010000Y-88590000D01*
D67*
X129120000Y-101690000D02*
X129730000Y-101690000D01*
D63*
X137150000Y-88560000D02*
X142280000Y-88560000D01*
X135277500Y-90800000D02*
X136010000Y-90800000D01*
D64*
X155460000Y-103390000D02*
X155460000Y-107040000D01*
X155460000Y-107040000D02*
X155460000Y-108000000D01*
D65*
X132520000Y-107220000D02*
X132480000Y-107260000D01*
X157795000Y-107090000D02*
X159250000Y-107090000D01*
D63*
X139000051Y-99770000D02*
X139000051Y-99480000D01*
D65*
X142060000Y-88660000D02*
X142030000Y-88630000D01*
D64*
X155460000Y-91850000D02*
X155460000Y-93860000D01*
D63*
X135430000Y-88520000D02*
X135400000Y-88550000D01*
X137595107Y-97463585D02*
X137583585Y-97463585D01*
X137440000Y-97300000D02*
X139444944Y-99304944D01*
X136610000Y-96490000D02*
X136610000Y-95440000D01*
D67*
X128775000Y-105270000D02*
X130385000Y-105270000D01*
D64*
X155490000Y-108650000D02*
X155440000Y-108600000D01*
X121320000Y-92750000D02*
X121290000Y-92720000D01*
D65*
X153165000Y-103765000D02*
X152510000Y-103110000D01*
X157010000Y-106207500D02*
X157010000Y-107132500D01*
D64*
X137870000Y-88550000D02*
X136680000Y-88550000D01*
X134090000Y-88550000D02*
X131980000Y-88550000D01*
X130460000Y-100870000D02*
X130460000Y-97230000D01*
D67*
X157220000Y-99160000D02*
X155500000Y-99160000D01*
D66*
X158750000Y-92010000D02*
X157475000Y-92010000D01*
D63*
X152420000Y-102010000D02*
X152450000Y-101980000D01*
D64*
X135580000Y-108670000D02*
X134670000Y-108670000D01*
D65*
X155470000Y-107050000D02*
X155460000Y-107040000D01*
D63*
X130460000Y-88700000D02*
X130480000Y-88680000D01*
X137583585Y-97463585D02*
X136610000Y-96490000D01*
X135810000Y-95280000D02*
X136330000Y-95280000D01*
X130400000Y-97170000D02*
X130460000Y-97230000D01*
X136610000Y-95440000D02*
X136440000Y-95270000D01*
D65*
X142290000Y-104920000D02*
X141360000Y-104920000D01*
D63*
X131850000Y-93590000D02*
X131820000Y-93620000D01*
X152310000Y-88560000D02*
X152330000Y-88540000D01*
D66*
X160900000Y-97570000D02*
X160470000Y-97140000D01*
D63*
X130440000Y-101480000D02*
X130460000Y-101500000D01*
X146590000Y-103640000D02*
X146590000Y-104100000D01*
D65*
X140700000Y-105580000D02*
X139810000Y-106470000D01*
D63*
X136700000Y-88530000D02*
X136680000Y-88550000D01*
D66*
X160470000Y-97140000D02*
X160470000Y-95740000D01*
D63*
X132480000Y-105360000D02*
X132490000Y-105350000D01*
D66*
X160900000Y-103930000D02*
X160900000Y-97570000D01*
D68*
%TO.N,VOLTAGE_REF*%
X139346478Y-103123522D02*
X138580000Y-103890000D01*
X138580000Y-103890000D02*
X138580000Y-104190000D01*
X138580000Y-104190000D02*
X138150000Y-104620000D01*
%TO.N,GPIO10_EXT_PLUG1*%
X138836478Y-102513522D02*
X138200000Y-103150000D01*
X138726478Y-102607786D02*
X138726478Y-102623522D01*
%TO.N,unconnected-(ESP32S3-Pad38)*%
X142173624Y-96332214D02*
X142177786Y-96332214D01*
X142177786Y-96332214D02*
X143420000Y-95090000D01*
D65*
%TO.N,Net-(EC50-Pad1)*%
X140260000Y-90030000D02*
X140260000Y-89800000D01*
D68*
X143910000Y-102640000D02*
X143910000Y-102670000D01*
X139425000Y-90865000D02*
X141105000Y-90865000D01*
X139425000Y-90865000D02*
X140260000Y-90030000D01*
X143049258Y-101779258D02*
X143910000Y-102640000D01*
D65*
X138620000Y-91750000D02*
X138620000Y-91670000D01*
D68*
X138620000Y-91670000D02*
X139425000Y-90865000D01*
D63*
X143022152Y-101759258D02*
X143029258Y-101759258D01*
D66*
%TO.N,Net-(ANT1-Pad1)*%
X120752107Y-105330000D02*
X121300000Y-105330000D01*
X122087500Y-104142500D02*
X122320000Y-103910000D01*
X121300000Y-105330000D02*
X119500000Y-105330000D01*
X119862893Y-105847107D02*
X120087107Y-105622893D01*
X121300000Y-105330000D02*
X121987500Y-105330000D01*
X121987500Y-105330000D02*
X122087500Y-105430000D01*
X122087500Y-105430000D02*
X122087500Y-104142500D01*
X119570000Y-107860000D02*
X119570000Y-106554214D01*
X119500000Y-105330000D02*
X119490000Y-105320000D01*
X120794214Y-105330010D02*
G75*
G03*
X120087107Y-105622893I-14J-999990D01*
G01*
X119862886Y-105847100D02*
G75*
G03*
X119570000Y-106554214I707114J-707100D01*
G01*
D68*
%TO.N,Net-(EC51-Pad1)*%
X143160000Y-102460000D02*
X143410000Y-102710000D01*
X142749258Y-102049258D02*
X143160000Y-102460000D01*
D65*
X142410000Y-91650000D02*
X142060000Y-92000000D01*
X143720000Y-91650000D02*
X142410000Y-91650000D01*
D68*
X142060000Y-92000000D02*
X142060000Y-93170000D01*
X143410000Y-102710000D02*
X143410000Y-103280000D01*
D63*
%TO.N,Net-(EC60-Pad1)*%
X134150000Y-93070000D02*
X134150000Y-92490000D01*
X135507500Y-97450000D02*
X134150000Y-96092500D01*
X133530000Y-91830000D02*
X133430000Y-91730000D01*
X133640000Y-91980000D02*
X134120000Y-92460000D01*
X134150000Y-96092500D02*
X134150000Y-93070000D01*
X134150000Y-93070000D02*
X134150000Y-92640000D01*
X134120000Y-92460000D02*
X134225000Y-92565000D01*
X134150000Y-92490000D02*
X134120000Y-92460000D01*
X134150000Y-92640000D02*
X134225000Y-92565000D01*
X136450152Y-97450000D02*
X135507500Y-97450000D01*
X134225000Y-92565000D02*
X135320000Y-93660000D01*
X137029422Y-98029270D02*
X136450152Y-97450000D01*
D68*
%TO.N,3V3*%
X132090000Y-87750000D02*
X132520000Y-87750000D01*
X139192500Y-86312500D02*
X139192500Y-86850000D01*
D64*
X133770000Y-100910000D02*
X133560000Y-100910000D01*
D67*
X130480000Y-87750000D02*
X132090000Y-87750000D01*
D69*
X155470000Y-87480000D02*
X155340000Y-87610000D01*
D63*
X136463737Y-98594955D02*
X136454955Y-98594955D01*
D67*
X149060000Y-86590000D02*
X149740000Y-87270000D01*
D63*
X127480000Y-86030000D02*
X127820000Y-86030000D01*
D65*
X138620000Y-95010000D02*
X138640000Y-95030000D01*
D63*
X136180894Y-98870894D02*
X135640000Y-98330000D01*
X135640000Y-98330000D02*
X135480000Y-98490000D01*
X127480000Y-86030000D02*
X129000000Y-86030000D01*
D69*
X141670000Y-106550000D02*
X141670000Y-107640000D01*
D68*
X133087500Y-86872500D02*
X133940000Y-86020000D01*
D70*
X142830000Y-103330000D02*
X142670000Y-103490000D01*
D69*
X134380000Y-105562500D02*
X134470000Y-105472500D01*
D68*
X139009321Y-96039321D02*
X138700000Y-95730000D01*
D69*
X142960000Y-107490000D02*
X142950000Y-107500000D01*
X142980000Y-107470000D02*
X142960000Y-107490000D01*
X155890000Y-87480000D02*
X155470000Y-87480000D01*
D70*
X161100000Y-89270000D02*
X161100000Y-88540000D01*
D69*
X133870000Y-99280000D02*
X133800000Y-99210000D01*
D63*
X144660000Y-103610000D02*
X144690000Y-103580000D01*
D67*
X129800500Y-87150500D02*
X129880500Y-87150500D01*
D69*
X134380000Y-107260000D02*
X134380000Y-105562500D01*
D63*
X121940000Y-87020000D02*
X122930000Y-86030000D01*
D69*
X141670000Y-106445000D02*
X141670000Y-105875000D01*
X145540000Y-107470000D02*
X145900000Y-107110000D01*
D63*
X139009321Y-96049371D02*
X139009321Y-96039321D01*
X134370000Y-90310000D02*
X134370000Y-91790000D01*
X136110000Y-98250000D02*
X135720000Y-98250000D01*
D68*
X138640000Y-95670000D02*
X138640000Y-95030000D01*
D69*
X155890000Y-87480000D02*
X154647500Y-87480000D01*
D67*
X138730000Y-93720000D02*
X138730000Y-94980000D01*
D71*
X154357500Y-86452500D02*
X154700000Y-86110000D01*
D70*
X160680000Y-89690000D02*
X161100000Y-89270000D01*
D63*
X134370000Y-89810000D02*
X134370000Y-90310000D01*
D69*
X157020000Y-87480000D02*
X155890000Y-87480000D01*
X135680000Y-99280000D02*
X135600000Y-99280000D01*
D67*
X150660000Y-87350000D02*
X150560000Y-87250000D01*
D68*
X133940000Y-86020000D02*
X138900000Y-86020000D01*
D69*
X133610000Y-99315000D02*
X133610000Y-101025000D01*
D63*
X129469500Y-86499500D02*
X129469500Y-87150500D01*
X122930000Y-86030000D02*
X127480000Y-86030000D01*
D71*
X154357500Y-86452500D02*
X154357500Y-87190000D01*
D68*
X133087500Y-87182500D02*
X133087500Y-86872500D01*
D67*
X148420000Y-86590000D02*
X149060000Y-86590000D01*
D69*
X135600000Y-99280000D02*
X133870000Y-99280000D01*
D63*
X134400000Y-89810000D02*
X133320000Y-89810000D01*
X134600000Y-92020000D02*
X135232500Y-92020000D01*
D69*
X141670000Y-107640000D02*
X141420000Y-107890000D01*
D70*
X142511101Y-102381101D02*
X142800000Y-102670000D01*
D63*
X135480000Y-99160000D02*
X135600000Y-99280000D01*
D69*
X145900000Y-107110000D02*
X146860000Y-107110000D01*
D65*
X149015000Y-107560000D02*
X149030000Y-107575000D01*
D68*
X138900000Y-86020000D02*
X139192500Y-86312500D01*
D65*
X159340000Y-105900000D02*
X160300000Y-105900000D01*
D69*
X145880000Y-107820000D02*
X146050000Y-107990000D01*
X145880000Y-107350000D02*
X145880000Y-107820000D01*
D63*
X129000000Y-86030000D02*
X129469500Y-86499500D01*
X135720000Y-98250000D02*
X135640000Y-98330000D01*
X134370000Y-91790000D02*
X134600000Y-92020000D01*
D69*
X136180000Y-107890000D02*
X135550000Y-107260000D01*
D68*
X121860000Y-89826250D02*
X121860000Y-88753750D01*
D69*
X154647500Y-87480000D02*
X154357500Y-87190000D01*
X144870000Y-107470000D02*
X142980000Y-107470000D01*
D63*
X136454955Y-98594955D02*
X136110000Y-98250000D01*
D70*
X142830000Y-102700000D02*
X142830000Y-103330000D01*
D67*
X129469500Y-87150500D02*
X129800500Y-87150500D01*
D69*
X135550000Y-107260000D02*
X134380000Y-107260000D01*
D65*
X158760000Y-106430000D02*
X158930000Y-106430000D01*
X158520000Y-106430000D02*
X158760000Y-106430000D01*
D63*
X128275000Y-86485000D02*
X128275000Y-87150500D01*
D68*
X132520000Y-87750000D02*
X133087500Y-87182500D01*
D65*
X158930000Y-106430000D02*
X159250000Y-106110000D01*
D69*
X144870000Y-107470000D02*
X145540000Y-107470000D01*
D63*
X143200000Y-104050000D02*
X142640000Y-103490000D01*
D65*
X159250000Y-106110000D02*
X159250000Y-105910000D01*
D69*
X141420000Y-107890000D02*
X136180000Y-107890000D01*
D66*
X135480000Y-98490000D02*
X135480000Y-99160000D01*
D67*
X128275000Y-87150500D02*
X129469500Y-87150500D01*
D69*
X142640000Y-107480000D02*
X141770000Y-107480000D01*
D70*
X142800000Y-102670000D02*
X142830000Y-102700000D01*
D68*
X138700000Y-95730000D02*
X138640000Y-95670000D01*
D63*
X134370000Y-90310000D02*
X135077500Y-90310000D01*
D71*
X154700000Y-86110000D02*
X155230000Y-86110000D01*
D63*
X136180894Y-98877798D02*
X136180894Y-98870894D01*
D65*
X146870000Y-107560000D02*
X149015000Y-107560000D01*
D67*
X129880500Y-87150500D02*
X130480000Y-87750000D01*
X154377500Y-87390000D02*
X154377500Y-87232500D01*
D63*
X144580000Y-104050000D02*
X143200000Y-104050000D01*
D67*
X150560000Y-87250000D02*
X149590000Y-87250000D01*
D65*
X146870000Y-107230000D02*
X146850000Y-107250000D01*
D63*
X121940000Y-88397500D02*
X121940000Y-87020000D01*
X142456466Y-102326466D02*
X142456466Y-102324944D01*
D65*
X158760000Y-106430000D02*
X158935000Y-106430000D01*
D64*
%TO.N,Net-(EC20-Pad1)*%
X135550000Y-102470000D02*
X135550000Y-102060000D01*
D63*
X135550000Y-101510000D02*
X135550000Y-101700000D01*
X136010000Y-100800000D02*
X136010000Y-101050000D01*
X136010000Y-101050000D02*
X135865000Y-101195000D01*
D64*
X135550000Y-102060000D02*
X135550000Y-101510000D01*
D63*
X136463737Y-100345045D02*
X136463737Y-100346263D01*
D64*
X134470000Y-103347500D02*
X134672500Y-103347500D01*
D63*
X136463737Y-100346263D02*
X136010000Y-100800000D01*
D64*
X135550000Y-102060000D02*
X135550000Y-101700000D01*
D65*
X134438750Y-103620000D02*
X132561250Y-103620000D01*
D63*
X136742113Y-100627887D02*
X136240000Y-101130000D01*
X136240000Y-101130000D02*
X135930000Y-101130000D01*
D64*
X134672500Y-103347500D02*
X135550000Y-102470000D01*
D63*
X136746579Y-100627887D02*
X136742113Y-100627887D01*
X135865000Y-101195000D02*
X135550000Y-101510000D01*
X135930000Y-101130000D02*
X135865000Y-101195000D01*
%TO.N,VDD_SPI*%
X145852500Y-89697500D02*
X145300000Y-89697500D01*
X154540000Y-100390000D02*
X149780000Y-100390000D01*
X154990000Y-95800000D02*
X154990000Y-90750000D01*
X146390000Y-89160000D02*
X145852500Y-89697500D01*
X145770000Y-100100000D02*
X148210000Y-100100000D01*
X154520000Y-100410000D02*
X154540000Y-100390000D01*
X148210000Y-100100000D02*
X149140000Y-101030000D01*
X154185000Y-95755000D02*
X154945000Y-95755000D01*
X149780000Y-100390000D02*
X149140000Y-101030000D01*
X154520000Y-101880000D02*
X154520000Y-100410000D01*
X144719208Y-99049208D02*
X145770000Y-100100000D01*
X154350000Y-102050000D02*
X154520000Y-101880000D01*
X149835000Y-89825000D02*
X149170000Y-89160000D01*
X146780000Y-89160000D02*
X146390000Y-89160000D01*
X149170000Y-89160000D02*
X146780000Y-89160000D01*
X154065000Y-89825000D02*
X152665000Y-89825000D01*
X154990000Y-90750000D02*
X154065000Y-89825000D01*
X154945000Y-95755000D02*
X154990000Y-95800000D01*
X154990000Y-100170000D02*
X154770000Y-100390000D01*
X149140000Y-101030000D02*
X149140000Y-102010000D01*
X154990000Y-95800000D02*
X154990000Y-100170000D01*
X152665000Y-89825000D02*
X149835000Y-89825000D01*
X144719208Y-98877798D02*
X144719208Y-99049208D01*
X154770000Y-100390000D02*
X154540000Y-100390000D01*
D66*
%TO.N,Net-(EC38-Pad1)*%
X132340000Y-102460000D02*
X128594214Y-102460000D01*
D63*
X124242500Y-105320000D02*
X124212500Y-105350000D01*
D66*
X126240000Y-105320000D02*
X124242500Y-105320000D01*
X134552893Y-102167107D02*
X134813554Y-101906446D01*
X134960000Y-101552893D02*
X134960000Y-101487107D01*
X126240000Y-104814214D02*
X126240000Y-105320000D01*
X134550000Y-102167107D02*
X134552893Y-102167107D01*
D63*
X136177798Y-100062202D02*
X135490000Y-100750000D01*
D66*
X129394214Y-102460000D02*
X133835786Y-102460000D01*
D63*
X136180894Y-100062202D02*
X136177798Y-100062202D01*
D66*
X127887107Y-102752893D02*
X126532893Y-104107107D01*
X135106446Y-101133554D02*
X135490000Y-100750000D01*
X134959995Y-101552893D02*
G75*
G02*
X134813554Y-101906446I-499995J-7D01*
G01*
X128594214Y-102460010D02*
G75*
G03*
X127887107Y-102752893I-14J-999990D01*
G01*
X126240010Y-104814214D02*
G75*
G02*
X126532893Y-104107107I999990J14D01*
G01*
X134550003Y-102167110D02*
G75*
G02*
X133842893Y-102460000I-707103J707110D01*
G01*
X134960005Y-101487107D02*
G75*
G02*
X135106446Y-101133554I499995J7D01*
G01*
D63*
%TO.N,CHIP_EN*%
X136280000Y-103620000D02*
X136610000Y-103620000D01*
X137330000Y-105280000D02*
X137880000Y-105830000D01*
D68*
X128370000Y-89450000D02*
X126350000Y-89450000D01*
X125120000Y-90010000D02*
X124465000Y-89355000D01*
X126350000Y-89450000D02*
X125790000Y-90010000D01*
D65*
X136220000Y-101620000D02*
X136220000Y-103900000D01*
D63*
X136280000Y-103620000D02*
X136880000Y-103620000D01*
X136400000Y-101540000D02*
X136260000Y-101540000D01*
X137029422Y-100910730D02*
X137029270Y-100910730D01*
X137330000Y-104580000D02*
X137330000Y-104800000D01*
D68*
X129560000Y-90640000D02*
X128370000Y-89450000D01*
D63*
X137029270Y-100910730D02*
X136400000Y-101540000D01*
X137330000Y-104340000D02*
X137330000Y-104580000D01*
X136610000Y-103620000D02*
X137330000Y-104340000D01*
D68*
X125790000Y-90010000D02*
X125120000Y-90010000D01*
D63*
X137880000Y-105830000D02*
X138220000Y-105830000D01*
D65*
X138220000Y-105830000D02*
X138140000Y-105830000D01*
D68*
X129560000Y-96390000D02*
X129560000Y-90640000D01*
X124465000Y-89355000D02*
X124465000Y-87050500D01*
D63*
X137330000Y-104580000D02*
X137330000Y-105280000D01*
D68*
X129760000Y-96590000D02*
X129560000Y-96390000D01*
%TO.N,ESP_GPIO0_BOOT-DTR*%
X136830000Y-101670000D02*
X136830000Y-102080000D01*
X123885000Y-91190000D02*
X125475000Y-91190000D01*
D63*
X137312265Y-97746427D02*
X137312265Y-97742265D01*
X125735000Y-87050500D02*
X125735000Y-89055000D01*
D68*
X136830000Y-102080000D02*
X136720000Y-102190000D01*
D63*
X137312265Y-97742265D02*
X136380000Y-96810000D01*
X136380000Y-96810000D02*
X135990000Y-96810000D01*
D68*
X123275000Y-90585000D02*
X123275000Y-90270000D01*
X123880000Y-91190000D02*
X123275000Y-90585000D01*
X137306427Y-101193573D02*
X136830000Y-101670000D01*
D63*
X137312265Y-101193573D02*
X137306427Y-101193573D01*
X125735000Y-89055000D02*
X125450000Y-89340000D01*
%TO.N,GPIO8_I2C_SDA*%
X156280000Y-107760000D02*
X156280000Y-106090000D01*
D65*
X156280000Y-108050000D02*
X156280000Y-107760000D01*
D68*
X137367500Y-86900000D02*
X137370000Y-86900000D01*
D63*
X139563686Y-103456314D02*
X139205000Y-103815000D01*
D68*
X137255000Y-86885000D02*
X138045000Y-87675000D01*
D63*
X137130000Y-90330000D02*
X137440000Y-90020000D01*
X137440000Y-90020000D02*
X137440000Y-89740000D01*
X139205000Y-103815000D02*
X139050000Y-103970000D01*
X149030000Y-103960000D02*
X150870000Y-103960000D01*
X150870000Y-103960000D02*
X151870000Y-104960000D01*
X137000000Y-90330000D02*
X137130000Y-90330000D01*
D65*
X156720000Y-108490000D02*
X156280000Y-108050000D01*
D63*
X139575006Y-103456314D02*
X139563686Y-103456314D01*
X139050000Y-103970000D02*
X139050000Y-104730000D01*
D65*
X156995000Y-108490000D02*
X156720000Y-108490000D01*
D63*
X151870000Y-104960000D02*
X151870000Y-105810000D01*
%TO.N,USB_D-*%
X145159950Y-102200000D02*
X147750000Y-102200000D01*
X158910000Y-101530000D02*
X158970000Y-101470000D01*
X157325000Y-101530000D02*
X158910000Y-101530000D01*
X143870680Y-100910730D02*
X145159950Y-102200000D01*
X147750000Y-102200000D02*
X147900000Y-102350000D01*
%TO.N,SPIHD*%
X154560000Y-93740000D02*
X154560000Y-91700000D01*
X154560000Y-91700000D02*
X153955000Y-91095000D01*
X145150000Y-98150000D02*
X145420000Y-98420000D01*
X153390000Y-95350000D02*
X153750000Y-94990000D01*
X153390000Y-96020000D02*
X153390000Y-96750000D01*
X144883635Y-98150000D02*
X145150000Y-98150000D01*
X153750000Y-94990000D02*
X153940000Y-94990000D01*
X145420000Y-98640000D02*
X145760000Y-98980000D01*
X153390000Y-96750000D02*
X153665000Y-97025000D01*
X154560000Y-94370000D02*
X153940000Y-94990000D01*
X154330000Y-97035000D02*
X153925000Y-97035000D01*
X144450000Y-98583635D02*
X144883635Y-98150000D01*
X153390000Y-95350000D02*
X153390000Y-96020000D01*
X145420000Y-98420000D02*
X145420000Y-98640000D01*
X154560000Y-94180000D02*
X154560000Y-93740000D01*
X154560000Y-93740000D02*
X154560000Y-94370000D01*
X153665000Y-97025000D02*
X154185000Y-97025000D01*
X153955000Y-91095000D02*
X152665000Y-91095000D01*
X153715000Y-95025000D02*
X153390000Y-95350000D01*
X145760000Y-98980000D02*
X147100000Y-98980000D01*
X147100000Y-98980000D02*
X150420000Y-95660000D01*
X150420000Y-95660000D02*
X150460000Y-95660000D01*
%TO.N,SPIWP*%
X145865000Y-98295000D02*
X146395000Y-98295000D01*
X149005000Y-92365000D02*
X147715000Y-92365000D01*
X149530000Y-95970000D02*
X149530000Y-92890000D01*
X144740000Y-97730000D02*
X145300000Y-97730000D01*
X147205000Y-98295000D02*
X149530000Y-95970000D01*
X144163523Y-98306477D02*
X144740000Y-97730000D01*
X146395000Y-98295000D02*
X147205000Y-98295000D01*
X145300000Y-97730000D02*
X145865000Y-98295000D01*
X149530000Y-92890000D02*
X149005000Y-92365000D01*
%TO.N,SPICS0*%
X146115000Y-95755000D02*
X146395000Y-95755000D01*
X146395000Y-95945000D02*
X145145000Y-97195000D01*
X143870680Y-98029270D02*
X143890730Y-98029270D01*
X146395000Y-95755000D02*
X146395000Y-95945000D01*
X145145000Y-97195000D02*
X144725000Y-97195000D01*
X143890730Y-98029270D02*
X144725000Y-97195000D01*
%TO.N,SPICLK*%
X152820000Y-95070000D02*
X152950000Y-94940000D01*
X152950000Y-94940000D02*
X153160000Y-94940000D01*
X143587837Y-97746427D02*
X143593573Y-97746427D01*
X154330000Y-98305000D02*
X153905000Y-98305000D01*
X153160000Y-94940000D02*
X153530000Y-94570000D01*
X145130000Y-96210000D02*
X145340000Y-96210000D01*
X153745000Y-92365000D02*
X154040000Y-92660000D01*
X144840000Y-96500000D02*
X144980000Y-96360000D01*
X153465000Y-98295000D02*
X153295000Y-98125000D01*
X144680000Y-96660000D02*
X144840000Y-96500000D01*
X152820000Y-95840000D02*
X152820000Y-96470000D01*
X152820000Y-95520000D02*
X152820000Y-95840000D01*
X153530000Y-94570000D02*
X152820000Y-95280000D01*
X154040000Y-94060000D02*
X153530000Y-94570000D01*
X152665000Y-92365000D02*
X153745000Y-92365000D01*
X152820000Y-95280000D02*
X152820000Y-95520000D01*
X154185000Y-98295000D02*
X153465000Y-98295000D01*
X152820000Y-95840000D02*
X152820000Y-97650000D01*
X152820000Y-97650000D02*
X153295000Y-98125000D01*
X144680000Y-96660000D02*
X145130000Y-96210000D01*
X152820000Y-95520000D02*
X152820000Y-95070000D01*
X143593573Y-97746427D02*
X144680000Y-96660000D01*
X154040000Y-92660000D02*
X154040000Y-94060000D01*
%TO.N,SPIQ*%
X147055000Y-97025000D02*
X147360000Y-96720000D01*
X144860000Y-95910000D02*
X145690000Y-95080000D01*
X146300000Y-92160000D02*
X147365000Y-91095000D01*
X146300000Y-95080000D02*
X146300000Y-92160000D01*
X147360000Y-95420000D02*
X147020000Y-95080000D01*
X145690000Y-95080000D02*
X146300000Y-95080000D01*
X147365000Y-91095000D02*
X147715000Y-91095000D01*
X146395000Y-97025000D02*
X146410000Y-97010000D01*
X147020000Y-95080000D02*
X146300000Y-95080000D01*
X144860000Y-95910000D02*
X145080000Y-95690000D01*
X144860000Y-95910000D02*
X144915000Y-95855000D01*
X147360000Y-96720000D02*
X147360000Y-95420000D01*
X143330000Y-97440000D02*
X144860000Y-95910000D01*
X146395000Y-97025000D02*
X147055000Y-97025000D01*
X144915000Y-95855000D02*
X145000000Y-95770000D01*
%TO.N,SPID*%
X154330000Y-99575000D02*
X154125000Y-99575000D01*
X154185000Y-99565000D02*
X153385000Y-99565000D01*
X151910000Y-94390000D02*
X151910000Y-94420000D01*
X143022152Y-97180742D02*
X143022152Y-97177848D01*
X152665000Y-93635000D02*
X152830000Y-93800000D01*
X152665000Y-93635000D02*
X151910000Y-94390000D01*
X152320000Y-98500000D02*
X152320000Y-94830000D01*
X152320000Y-94830000D02*
X151910000Y-94420000D01*
X153385000Y-99565000D02*
X152320000Y-98500000D01*
X143022152Y-97177848D02*
X145550000Y-94650000D01*
%TO.N,USB_D+*%
X144153523Y-100627887D02*
X144157887Y-100627887D01*
X145005636Y-101480000D02*
X147540000Y-101480000D01*
X144153523Y-100627887D02*
X145005636Y-101480000D01*
X157330000Y-100725000D02*
X158825000Y-100725000D01*
%TO.N,unconnected-(ESP32S3-Pad6)*%
X137595107Y-101476415D02*
X137593585Y-101476415D01*
D68*
%TO.N,unconnected-(ESP32S3-Pad37)*%
X142484944Y-96615056D02*
X143760000Y-95340000D01*
X142456466Y-96615056D02*
X142484944Y-96615056D01*
D63*
%TO.N,TXD0*%
X126607500Y-91900000D02*
X126607500Y-91612500D01*
X126453750Y-91496250D02*
X127306250Y-90643750D01*
%TO.N,RXD0*%
X137877950Y-97180742D02*
X137870742Y-97180742D01*
D68*
X126255000Y-90520000D02*
X124720000Y-90520000D01*
X124720000Y-90520000D02*
X124530000Y-90330000D01*
D63*
X137360000Y-96670000D02*
X137360000Y-94500000D01*
X137360000Y-94500000D02*
X137350000Y-94490000D01*
X137870742Y-97180742D02*
X137360000Y-96670000D01*
%TO.N,unconnected-(ESP32S3-Pad47)*%
X138170000Y-95780000D02*
X138170000Y-95450000D01*
X138726478Y-96332214D02*
X138726478Y-96326478D01*
X138722214Y-96332214D02*
X138170000Y-95780000D01*
X138726478Y-96332214D02*
X138722214Y-96332214D01*
D68*
%TO.N,unconnected-(ESP32S3-Pad42)*%
X141042253Y-95200843D02*
X141042253Y-95182253D01*
X141042253Y-95182253D02*
X140570000Y-94710000D01*
D63*
%TO.N,unconnected-(ESP32S3-Pad9)*%
X138443636Y-102324944D02*
X138443636Y-102326364D01*
X138425056Y-102324944D02*
X137920000Y-102830000D01*
X138443636Y-102324944D02*
X138425056Y-102324944D01*
D64*
%TO.N,GPIO9_I2C_SCL*%
X121260000Y-98940000D02*
X119870000Y-98940000D01*
D63*
X136922500Y-90830000D02*
X137700000Y-90830000D01*
D65*
X159150000Y-108470000D02*
X158985000Y-108635000D01*
D63*
X139857849Y-103739157D02*
X139857849Y-104197849D01*
X139857849Y-104197849D02*
X140080000Y-104420000D01*
D65*
X159150000Y-107730000D02*
X159150000Y-108470000D01*
D64*
X119870000Y-98940000D02*
X119860000Y-98930000D01*
D65*
X158985000Y-108635000D02*
X158510000Y-108635000D01*
D68*
X134912500Y-86890000D02*
X135200000Y-86890000D01*
D63*
X149030000Y-105035000D02*
X150465000Y-105035000D01*
D68*
X135200000Y-86890000D02*
X135970000Y-87660000D01*
D63*
%TO.N,unconnected-(ESP32S3-Pad15)*%
X141042253Y-103739157D02*
X141042253Y-104457747D01*
D68*
%TO.N,unconnected-(ESP32S3-Pad16)*%
X141325096Y-103456314D02*
X141325096Y-103465096D01*
X141325096Y-103465096D02*
X141690000Y-103830000D01*
X141690000Y-103830000D02*
X141690000Y-104420000D01*
D63*
%TO.N,Net-(EC61-Pad1)*%
X136746579Y-98312113D02*
X136284466Y-97850000D01*
D64*
X133490000Y-97170000D02*
X133510000Y-97170000D01*
D65*
X133020000Y-95412500D02*
X133020000Y-95920000D01*
D63*
X136284466Y-97850000D02*
X135280000Y-97850000D01*
X134780000Y-97350000D02*
X133355000Y-97350000D01*
D65*
X133355000Y-96255000D02*
X133355000Y-97350000D01*
X133020000Y-95920000D02*
X133355000Y-96255000D01*
D63*
X135280000Y-97850000D02*
X134780000Y-97350000D01*
%TO.N,Net-(ER2-Pad2)*%
X128480000Y-91386250D02*
X128480000Y-90713750D01*
X137770000Y-96510000D02*
X137770000Y-95980000D01*
X137770000Y-95980000D02*
X137770000Y-95080000D01*
X137975000Y-94005000D02*
X137480000Y-93510000D01*
X138160793Y-96897899D02*
X138157899Y-96897899D01*
X138157899Y-96897899D02*
X137770000Y-96510000D01*
X137770000Y-95080000D02*
X137975000Y-94875000D01*
X137770000Y-95980000D02*
X137770000Y-95120000D01*
X137975000Y-94875000D02*
X137975000Y-94005000D01*
D68*
%TO.N,unconnected-(ESP32S3-Pad36)*%
X142742101Y-96897899D02*
X144110000Y-95530000D01*
X142739309Y-96897899D02*
X142742101Y-96897899D01*
D65*
%TO.N,SPICS1*%
X145517500Y-91402500D02*
X145300000Y-91402500D01*
D70*
X151170000Y-98220000D02*
X149160000Y-100230000D01*
X147095000Y-89825000D02*
X145517500Y-91402500D01*
X151170000Y-91820000D02*
X151170000Y-97580000D01*
X151170000Y-97580000D02*
X151170000Y-98220000D01*
X149175000Y-89825000D02*
X151170000Y-91820000D01*
D68*
X144844629Y-100194629D02*
X145370000Y-100720000D01*
D70*
X147715000Y-89825000D02*
X149175000Y-89825000D01*
D65*
X147715000Y-89825000D02*
X147095000Y-89825000D01*
D68*
X145370000Y-100720000D02*
X146780000Y-100720000D01*
%TO.N,unconnected-(ESP32S3-Pad24)*%
X143587837Y-101207837D02*
X144740000Y-102360000D01*
X143587837Y-101193573D02*
X143587837Y-101207837D01*
%TO.N,unconnected-(ESP32S3-Pad27)*%
X145196320Y-101105000D02*
X145739974Y-101105000D01*
X144436365Y-100345045D02*
X145196320Y-101105000D01*
X145739974Y-101105000D02*
X145740000Y-101104974D01*
%TO.N,unconnected-(ESP32S3-Pad23)*%
X143304995Y-101484995D02*
X143930000Y-102110000D01*
X143304995Y-101476415D02*
X143304995Y-101484995D01*
%TO.N,IO35_LED_G*%
X144890000Y-92870000D02*
X144890000Y-92370000D01*
X141607938Y-95762062D02*
X143970000Y-93400000D01*
D63*
X141607938Y-95766528D02*
X141607938Y-95762062D01*
X144090000Y-87700000D02*
X144060000Y-87670000D01*
D68*
X144360000Y-93400000D02*
X144890000Y-92870000D01*
X143970000Y-93400000D02*
X144360000Y-93400000D01*
D63*
X145230000Y-87700000D02*
X144090000Y-87700000D01*
D67*
%TO.N,5V0*%
X158420000Y-94570000D02*
X158420000Y-93680000D01*
D68*
X131140000Y-86530000D02*
X130730000Y-86120000D01*
D67*
X158987500Y-95470000D02*
X158987500Y-95137500D01*
X158430000Y-93510000D02*
X158430000Y-94010000D01*
X159820000Y-102330000D02*
X160340000Y-101810000D01*
D66*
X120320000Y-91150000D02*
X120320000Y-90630000D01*
D68*
X131290000Y-86530000D02*
X131140000Y-86530000D01*
D67*
X157247500Y-102330000D02*
X159820000Y-102330000D01*
X158400000Y-94270000D02*
X156540000Y-94270000D01*
X158750000Y-97620000D02*
X158750000Y-95707500D01*
X158920000Y-97790000D02*
X158750000Y-97620000D01*
X160340000Y-101810000D02*
X160340000Y-99210000D01*
D68*
X130730000Y-86120000D02*
X130270000Y-86120000D01*
D66*
X120910000Y-91740000D02*
X120320000Y-91150000D01*
D67*
X158987500Y-95137500D02*
X158420000Y-94570000D01*
X158750000Y-95707500D02*
X158987500Y-95470000D01*
X159330000Y-98200000D02*
X158920000Y-97790000D01*
X160340000Y-99210000D02*
X159330000Y-98200000D01*
D66*
X121130000Y-91740000D02*
X120910000Y-91740000D01*
%TO.N,Net-(AL1-Pad2)*%
X156515000Y-90295000D02*
X156515000Y-89525000D01*
D71*
X156530000Y-90630000D02*
X156525000Y-90635000D01*
D69*
X159820000Y-88120000D02*
X158890000Y-89050000D01*
D66*
X156930000Y-89110000D02*
X158080000Y-89110000D01*
D69*
X159820000Y-87400000D02*
X159820000Y-88120000D01*
X158890000Y-89050000D02*
X158140000Y-89050000D01*
D66*
X158080000Y-89110000D02*
X158140000Y-89050000D01*
X156515000Y-89525000D02*
X156930000Y-89110000D01*
X159820000Y-88290000D02*
X159820000Y-87480000D01*
%TO.N,Net-(AR1-Pad2)*%
X160750000Y-93460000D02*
X160750000Y-92540000D01*
D71*
X159210000Y-91490000D02*
X159570000Y-91850000D01*
X159210000Y-90670000D02*
X159210000Y-91230000D01*
X158950000Y-90410000D02*
X159210000Y-90670000D01*
D66*
X160750000Y-91760000D02*
X160680000Y-91690000D01*
D71*
X159210000Y-91230000D02*
X159210000Y-91490000D01*
D66*
X160750000Y-92540000D02*
X160750000Y-91760000D01*
D71*
X158484998Y-90410000D02*
X158950000Y-90410000D01*
X159570000Y-91850000D02*
X160690000Y-91850000D01*
D63*
%TO.N,Net-(LED1-Pad3)*%
X143290000Y-86560000D02*
X143040000Y-86810000D01*
X145230000Y-86560000D02*
X143290000Y-86560000D01*
D68*
%TO.N,IO34_LED_B*%
X144504974Y-93750000D02*
X145454974Y-92800000D01*
X144210000Y-93750000D02*
X144504974Y-93750000D01*
X145454974Y-92800000D02*
X145650000Y-92800000D01*
X141910629Y-96049371D02*
X144210000Y-93750000D01*
D63*
X148525000Y-87810000D02*
X147115000Y-87810000D01*
X141890781Y-96049371D02*
X141910629Y-96049371D01*
%TO.N,IO36_LED_R*%
X141325096Y-95483686D02*
X141326314Y-95483686D01*
D68*
X141326314Y-95483686D02*
X144110000Y-92700000D01*
D63*
X141500000Y-86950000D02*
X141500000Y-87930000D01*
X144110000Y-92700000D02*
X144110000Y-92680000D01*
%TO.N,GPIO06_EXT_PLUG2*%
X125165000Y-93595000D02*
X124575000Y-93595000D01*
X139139321Y-102760679D02*
X138180000Y-103720000D01*
X139009321Y-102890629D02*
X139009321Y-102890679D01*
X125730000Y-93030000D02*
X125165000Y-93595000D01*
X128430000Y-100233750D02*
X128430000Y-93926250D01*
X127820000Y-93030000D02*
X125730000Y-93030000D01*
X128422500Y-93632500D02*
X127820000Y-93030000D01*
X128422500Y-94050000D02*
X128422500Y-93632500D01*
%TO.N,unconnected-(ESP32S3-Pad18)*%
X141890781Y-102890629D02*
X141900629Y-102890629D01*
%TO.N,unconnected-(ESP32S3-Pad17)*%
X141607938Y-103177938D02*
X142110000Y-103680000D01*
X141607938Y-103173472D02*
X141607938Y-103177938D01*
X142110000Y-103680000D02*
X142110000Y-104230000D01*
D68*
%TO.N,GPIO38_IMU_CS*%
X139857849Y-95200843D02*
X139770000Y-95112994D01*
X139740000Y-95106497D02*
X139740000Y-94533503D01*
X139857849Y-95200843D02*
X139650000Y-94992994D01*
D63*
X137070000Y-91330000D02*
X137310000Y-91330000D01*
X137450000Y-91470000D02*
X137450000Y-91930000D01*
X137310000Y-91330000D02*
X137450000Y-91470000D01*
D68*
%TO.N,GPIO2_PLUG_PWR_3V3*%
X137565000Y-102075000D02*
X137511786Y-102128213D01*
X128930000Y-101160000D02*
X129610000Y-100480000D01*
X118720000Y-99310000D02*
X120570000Y-101160000D01*
X118720000Y-89150000D02*
X118720000Y-99310000D01*
X125550000Y-101160000D02*
X127970000Y-101160000D01*
X137310000Y-102330000D02*
X137310000Y-102760000D01*
X128540000Y-101160000D02*
X127970000Y-101160000D01*
X118350000Y-88780000D02*
X118720000Y-89150000D01*
D63*
X137877950Y-101759258D02*
X137877950Y-101772050D01*
D68*
X129610000Y-100480000D02*
X129610000Y-98860000D01*
X125550000Y-101160000D02*
X128930000Y-101160000D01*
X120570000Y-101160000D02*
X125550000Y-101160000D01*
X137565000Y-102075000D02*
X137310000Y-102330000D01*
X137988213Y-101651786D02*
X137565000Y-102075000D01*
X128540000Y-101160000D02*
X128950000Y-101160000D01*
D63*
%TO.N,3V3_PLUG*%
X119780000Y-89790000D02*
X119440000Y-90130000D01*
X119440000Y-90130000D02*
X119440000Y-90210000D01*
X120150000Y-89790000D02*
X119780000Y-89790000D01*
X120990000Y-86732500D02*
X120990000Y-88950000D01*
X121260000Y-97940000D02*
X121220000Y-97980000D01*
X121220000Y-97980000D02*
X120360000Y-97980000D01*
X119440000Y-97060000D02*
X119440000Y-90210000D01*
X120360000Y-97980000D02*
X119440000Y-97060000D01*
X120990000Y-88950000D02*
X120150000Y-89790000D01*
%TO.N,ADC_OUT*%
X123205000Y-92335000D02*
X123205000Y-93605000D01*
X121355000Y-99930000D02*
X121930000Y-99930000D01*
X122775000Y-93605000D02*
X123205000Y-93605000D01*
X122350000Y-94030000D02*
X122775000Y-93605000D01*
X121930000Y-99930000D02*
X122350000Y-99510000D01*
X122350000Y-99510000D02*
X122350000Y-94030000D01*
%TO.N,Net-(Q5-Pad1)*%
X120040000Y-87440000D02*
X119380000Y-86780000D01*
X119380000Y-86780000D02*
X118350000Y-86780000D01*
X120040000Y-88607500D02*
X120040000Y-87440000D01*
%TO.N,Net-(J1-Pad6)*%
X126597500Y-93760000D02*
X126560000Y-93760000D01*
X126560000Y-93760000D02*
X125455000Y-94865000D01*
X125455000Y-94865000D02*
X124575000Y-94865000D01*
%TO.N,Net-(J1-Pad8)*%
X126260000Y-95670000D02*
X125760000Y-96170000D01*
X126597500Y-95670000D02*
X126260000Y-95670000D01*
X124610000Y-96170000D02*
X124575000Y-96135000D01*
X125760000Y-96170000D02*
X124610000Y-96170000D01*
%TO.N,Net-(J1-Pad10)*%
X126547500Y-97590000D02*
X124760000Y-97590000D01*
X124760000Y-97590000D02*
X124575000Y-97405000D01*
%TO.N,Net-(J1-Pad12)*%
X125040000Y-99990000D02*
X124575000Y-99525000D01*
X125720000Y-99990000D02*
X126320000Y-99990000D01*
X124575000Y-99525000D02*
X124575000Y-98675000D01*
X125720000Y-99990000D02*
X125040000Y-99990000D01*
%TD*%
%TA.AperFunction,Conductor*%
%TO.N,GND*%
G36*
X129988211Y-101592263D02*
G01*
X130024470Y-101641548D01*
X130029500Y-101672702D01*
X130029500Y-101859748D01*
X130030448Y-101864512D01*
X130037931Y-101902131D01*
X130041133Y-101918231D01*
X130046552Y-101926341D01*
X130059352Y-101945497D01*
X130075962Y-102004385D01*
X130054786Y-102061789D01*
X130003912Y-102095783D01*
X129977038Y-102099500D01*
X128630383Y-102099500D01*
X128614894Y-102098281D01*
X128613165Y-102098007D01*
X128594219Y-102095006D01*
X128581617Y-102097002D01*
X128572624Y-102098006D01*
X128494944Y-102103097D01*
X128419488Y-102108041D01*
X128419484Y-102108042D01*
X128416257Y-102108253D01*
X128413088Y-102108883D01*
X128413083Y-102108884D01*
X128348902Y-102121650D01*
X128241340Y-102143044D01*
X128238278Y-102144084D01*
X128238272Y-102144085D01*
X128108945Y-102187984D01*
X128072461Y-102200368D01*
X128069555Y-102201801D01*
X127915414Y-102277812D01*
X127915409Y-102277815D01*
X127912509Y-102279245D01*
X127764221Y-102378326D01*
X127682664Y-102449848D01*
X127678008Y-102453363D01*
X127676951Y-102453871D01*
X127672897Y-102457279D01*
X127665960Y-102464216D01*
X127661231Y-102468644D01*
X127646332Y-102481710D01*
X127639252Y-102487367D01*
X127629020Y-102494801D01*
X127624442Y-102501102D01*
X127624441Y-102501103D01*
X127616715Y-102511737D01*
X127606627Y-102523549D01*
X126303549Y-103826627D01*
X126291737Y-103836715D01*
X126274801Y-103849020D01*
X126267369Y-103859250D01*
X126261715Y-103866325D01*
X126160466Y-103981779D01*
X126160455Y-103981793D01*
X126158326Y-103984221D01*
X126156531Y-103986908D01*
X126156526Y-103986914D01*
X126094598Y-104079598D01*
X126059245Y-104132509D01*
X126057815Y-104135409D01*
X126057812Y-104135414D01*
X126004650Y-104243220D01*
X125980368Y-104292461D01*
X125978575Y-104297744D01*
X125934323Y-104428113D01*
X125923044Y-104461340D01*
X125888253Y-104636257D01*
X125887324Y-104650440D01*
X125881311Y-104742195D01*
X125858639Y-104799024D01*
X125852527Y-104805725D01*
X125841472Y-104816780D01*
X125837937Y-104823717D01*
X125837936Y-104823719D01*
X125796295Y-104905445D01*
X125753030Y-104948710D01*
X125708085Y-104959500D01*
X124916978Y-104959500D01*
X124858787Y-104940593D01*
X124828769Y-104905445D01*
X124778197Y-104806193D01*
X124778194Y-104806189D01*
X124774658Y-104799249D01*
X124680751Y-104705342D01*
X124673814Y-104701807D01*
X124673812Y-104701806D01*
X124569360Y-104648585D01*
X124569359Y-104648585D01*
X124562420Y-104645049D01*
X124554727Y-104643830D01*
X124554725Y-104643830D01*
X124468092Y-104630109D01*
X124468090Y-104630109D01*
X124464246Y-104629500D01*
X123960754Y-104629500D01*
X123956910Y-104630109D01*
X123956908Y-104630109D01*
X123870275Y-104643830D01*
X123870273Y-104643830D01*
X123862580Y-104645049D01*
X123855641Y-104648585D01*
X123855640Y-104648585D01*
X123751188Y-104701806D01*
X123751186Y-104701807D01*
X123744249Y-104705342D01*
X123650342Y-104799249D01*
X123646807Y-104806186D01*
X123646806Y-104806188D01*
X123613715Y-104871133D01*
X123590049Y-104917580D01*
X123588830Y-104925273D01*
X123588830Y-104925275D01*
X123582222Y-104967000D01*
X123574500Y-105015754D01*
X123574500Y-105844246D01*
X123575109Y-105848090D01*
X123575109Y-105848092D01*
X123587171Y-105924246D01*
X123590049Y-105942420D01*
X123650342Y-106060751D01*
X123744249Y-106154658D01*
X123751186Y-106158193D01*
X123751188Y-106158194D01*
X123835863Y-106201338D01*
X123862580Y-106214951D01*
X123870273Y-106216170D01*
X123870275Y-106216170D01*
X123956908Y-106229891D01*
X123956910Y-106229891D01*
X123960754Y-106230500D01*
X124464246Y-106230500D01*
X124468090Y-106229891D01*
X124468092Y-106229891D01*
X124554725Y-106216170D01*
X124554727Y-106216170D01*
X124562420Y-106214951D01*
X124589137Y-106201338D01*
X124673812Y-106158194D01*
X124673814Y-106158193D01*
X124680751Y-106154658D01*
X124774658Y-106060751D01*
X124834951Y-105942420D01*
X124837830Y-105924246D01*
X124849891Y-105848092D01*
X124849891Y-105848090D01*
X124850500Y-105844246D01*
X124850500Y-105779500D01*
X124869407Y-105721309D01*
X124918907Y-105685345D01*
X124949500Y-105680500D01*
X125708085Y-105680500D01*
X125766276Y-105699407D01*
X125796295Y-105734555D01*
X125819196Y-105779500D01*
X125841472Y-105823220D01*
X125936780Y-105918528D01*
X125943717Y-105922063D01*
X125943719Y-105922064D01*
X125997291Y-105949360D01*
X126056874Y-105979719D01*
X126064568Y-105980938D01*
X126064569Y-105980938D01*
X126152666Y-105994891D01*
X126152668Y-105994891D01*
X126156512Y-105995500D01*
X126673488Y-105995500D01*
X126677332Y-105994891D01*
X126677334Y-105994891D01*
X126765431Y-105980938D01*
X126765432Y-105980938D01*
X126773126Y-105979719D01*
X126832709Y-105949360D01*
X126886281Y-105922064D01*
X126886283Y-105922063D01*
X126893220Y-105918528D01*
X126988528Y-105823220D01*
X126998084Y-105804467D01*
X127046183Y-105710066D01*
X127046183Y-105710065D01*
X127049719Y-105703126D01*
X127051180Y-105693905D01*
X127064891Y-105607334D01*
X127064891Y-105607332D01*
X127065500Y-105603488D01*
X127065500Y-105036512D01*
X127061603Y-105011908D01*
X127050938Y-104944569D01*
X127050938Y-104944568D01*
X127049719Y-104936874D01*
X127038802Y-104915448D01*
X126992064Y-104823719D01*
X126992063Y-104823717D01*
X126988528Y-104816780D01*
X126893220Y-104721472D01*
X126886283Y-104717937D01*
X126886281Y-104717936D01*
X126780066Y-104663817D01*
X126780065Y-104663817D01*
X126773126Y-104660281D01*
X126765432Y-104659062D01*
X126765431Y-104659062D01*
X126751515Y-104656858D01*
X126696998Y-104629080D01*
X126669222Y-104574563D01*
X126679693Y-104512409D01*
X126703686Y-104467521D01*
X126714467Y-104451385D01*
X126764560Y-104390345D01*
X126768600Y-104385422D01*
X126779260Y-104375372D01*
X126779171Y-104375283D01*
X126784677Y-104369777D01*
X126790985Y-104365194D01*
X126803291Y-104348256D01*
X126813374Y-104336450D01*
X128116450Y-103033374D01*
X128128256Y-103023291D01*
X128145194Y-103010985D01*
X128149777Y-103004677D01*
X128155283Y-102999171D01*
X128155372Y-102999260D01*
X128165423Y-102988599D01*
X128231385Y-102934467D01*
X128247522Y-102923685D01*
X128340886Y-102873782D01*
X128358816Y-102866356D01*
X128460124Y-102835626D01*
X128479158Y-102831840D01*
X128486932Y-102831074D01*
X128564110Y-102823474D01*
X128578721Y-102823905D01*
X128578721Y-102823775D01*
X128586513Y-102823775D01*
X128594209Y-102824994D01*
X128601906Y-102823775D01*
X128614889Y-102821719D01*
X128630374Y-102820500D01*
X130014079Y-102820500D01*
X130072270Y-102839407D01*
X130108234Y-102888907D01*
X130108234Y-102950093D01*
X130087345Y-102984180D01*
X130085448Y-102985448D01*
X130041133Y-103051769D01*
X130029500Y-103110252D01*
X130029500Y-108304318D01*
X130012815Y-108359320D01*
X129991133Y-108391769D01*
X129979500Y-108450252D01*
X129979500Y-108889748D01*
X129979657Y-108890539D01*
X129966821Y-108949047D01*
X129921085Y-108989689D01*
X129881407Y-108997987D01*
X129581896Y-108997971D01*
X129523706Y-108979061D01*
X129487745Y-108929559D01*
X129482901Y-108898663D01*
X129483461Y-108719001D01*
X129486518Y-107737864D01*
X129490000Y-106620000D01*
X120034692Y-106603585D01*
X119976535Y-106584577D01*
X119940657Y-106535014D01*
X119936342Y-106494883D01*
X119941831Y-106439148D01*
X119945616Y-106420117D01*
X119946280Y-106417930D01*
X119976345Y-106318814D01*
X119983771Y-106300884D01*
X120033676Y-106207516D01*
X120044456Y-106191382D01*
X120098568Y-106125446D01*
X120109256Y-106115368D01*
X120109172Y-106115284D01*
X120114684Y-106109772D01*
X120120985Y-106105194D01*
X120133291Y-106088256D01*
X120143374Y-106076450D01*
X120316450Y-105903374D01*
X120328256Y-105893291D01*
X120345194Y-105880985D01*
X120349777Y-105874677D01*
X120355283Y-105869171D01*
X120355372Y-105869260D01*
X120365423Y-105858599D01*
X120387657Y-105840353D01*
X120431385Y-105804467D01*
X120447522Y-105793685D01*
X120540886Y-105743782D01*
X120558816Y-105736356D01*
X120660124Y-105705626D01*
X120679158Y-105701840D01*
X120686932Y-105701074D01*
X120764110Y-105693474D01*
X120778721Y-105693905D01*
X120778721Y-105693775D01*
X120786513Y-105693775D01*
X120794209Y-105694994D01*
X120801906Y-105693775D01*
X120814889Y-105691719D01*
X120830374Y-105690500D01*
X121350500Y-105690500D01*
X121408691Y-105709407D01*
X121444655Y-105758907D01*
X121449500Y-105789500D01*
X121449500Y-105844246D01*
X121450109Y-105848090D01*
X121450109Y-105848092D01*
X121462171Y-105924246D01*
X121465049Y-105942420D01*
X121525342Y-106060751D01*
X121619249Y-106154658D01*
X121626186Y-106158193D01*
X121626188Y-106158194D01*
X121710863Y-106201338D01*
X121737580Y-106214951D01*
X121745273Y-106216170D01*
X121745275Y-106216170D01*
X121831908Y-106229891D01*
X121831910Y-106229891D01*
X121835754Y-106230500D01*
X122339246Y-106230500D01*
X122343090Y-106229891D01*
X122343092Y-106229891D01*
X122429725Y-106216170D01*
X122429727Y-106216170D01*
X122437420Y-106214951D01*
X122464137Y-106201338D01*
X122548812Y-106158194D01*
X122548814Y-106158193D01*
X122555751Y-106154658D01*
X122649658Y-106060751D01*
X122709951Y-105942420D01*
X122712830Y-105924246D01*
X122724891Y-105848092D01*
X122724891Y-105848090D01*
X122725500Y-105844246D01*
X122725500Y-105015754D01*
X122717778Y-104967000D01*
X122711170Y-104925275D01*
X122711170Y-104925273D01*
X122709951Y-104917580D01*
X122686285Y-104871133D01*
X122653194Y-104806188D01*
X122653193Y-104806186D01*
X122649658Y-104799249D01*
X122555751Y-104705342D01*
X122548813Y-104701807D01*
X122548809Y-104701804D01*
X122502054Y-104677981D01*
X122458790Y-104634716D01*
X122448000Y-104589772D01*
X122448000Y-104484500D01*
X122466907Y-104426309D01*
X122516407Y-104390345D01*
X122547000Y-104385500D01*
X122603488Y-104385500D01*
X122607332Y-104384891D01*
X122607334Y-104384891D01*
X122695431Y-104370938D01*
X122695432Y-104370938D01*
X122703126Y-104369719D01*
X122764342Y-104338528D01*
X122816281Y-104312064D01*
X122816283Y-104312063D01*
X122823220Y-104308528D01*
X122918528Y-104213220D01*
X122943072Y-104165051D01*
X122976183Y-104100066D01*
X122976183Y-104100065D01*
X122979719Y-104093126D01*
X122989874Y-104029013D01*
X122994891Y-103997334D01*
X122994891Y-103997332D01*
X122995500Y-103993488D01*
X122995500Y-103476512D01*
X122984471Y-103406874D01*
X122980938Y-103384569D01*
X122980938Y-103384568D01*
X122979719Y-103376874D01*
X122948787Y-103316166D01*
X122922064Y-103263719D01*
X122922063Y-103263717D01*
X122918528Y-103256780D01*
X122823220Y-103161472D01*
X122816283Y-103157937D01*
X122816281Y-103157936D01*
X122710066Y-103103817D01*
X122710065Y-103103817D01*
X122703126Y-103100281D01*
X122695432Y-103099062D01*
X122695431Y-103099062D01*
X122607334Y-103085109D01*
X122607332Y-103085109D01*
X122603488Y-103084500D01*
X122036512Y-103084500D01*
X122032668Y-103085109D01*
X122032666Y-103085109D01*
X121944569Y-103099062D01*
X121944568Y-103099062D01*
X121936874Y-103100281D01*
X121929935Y-103103817D01*
X121929934Y-103103817D01*
X121823719Y-103157936D01*
X121823717Y-103157937D01*
X121816780Y-103161472D01*
X121721472Y-103256780D01*
X121717937Y-103263717D01*
X121717936Y-103263719D01*
X121691213Y-103316166D01*
X121660281Y-103376874D01*
X121659062Y-103384568D01*
X121659062Y-103384569D01*
X121655529Y-103406874D01*
X121644500Y-103476512D01*
X121644500Y-103993488D01*
X121645109Y-103997332D01*
X121645109Y-103997334D01*
X121650127Y-104029013D01*
X121660281Y-104093126D01*
X121663817Y-104100065D01*
X121663817Y-104100066D01*
X121716210Y-104202893D01*
X121727000Y-104247838D01*
X121727000Y-104589772D01*
X121708093Y-104647963D01*
X121672946Y-104677981D01*
X121626191Y-104701804D01*
X121626187Y-104701807D01*
X121619249Y-104705342D01*
X121525342Y-104799249D01*
X121521807Y-104806186D01*
X121521806Y-104806188D01*
X121519215Y-104811274D01*
X121468897Y-104910029D01*
X121466137Y-104915445D01*
X121422872Y-104958710D01*
X121377927Y-104969500D01*
X120830383Y-104969500D01*
X120814894Y-104968281D01*
X120813165Y-104968007D01*
X120794219Y-104965006D01*
X120781617Y-104967002D01*
X120772622Y-104968006D01*
X120760838Y-104968779D01*
X120753063Y-104969288D01*
X120746591Y-104969500D01*
X119873585Y-104969500D01*
X119815394Y-104950593D01*
X119791270Y-104925502D01*
X119789971Y-104923558D01*
X119784552Y-104915448D01*
X119718231Y-104871133D01*
X119708668Y-104869231D01*
X119708666Y-104869230D01*
X119685995Y-104864721D01*
X119659748Y-104859500D01*
X119319500Y-104859500D01*
X119261309Y-104840593D01*
X119225345Y-104791093D01*
X119220500Y-104760500D01*
X119220500Y-104522268D01*
X119239407Y-104464077D01*
X119288907Y-104428113D01*
X119319500Y-104423268D01*
X119395000Y-104423268D01*
X119395000Y-102310000D01*
X118118391Y-102310000D01*
X118060200Y-102291093D01*
X118024236Y-102241593D01*
X118024236Y-102180407D01*
X118060200Y-102130907D01*
X118085589Y-102117592D01*
X118128184Y-102102634D01*
X118134449Y-102098007D01*
X118231193Y-102026550D01*
X118237150Y-102022150D01*
X118256227Y-101996322D01*
X118313238Y-101919136D01*
X118313239Y-101919135D01*
X118317634Y-101913184D01*
X118362519Y-101785369D01*
X118365500Y-101753834D01*
X118365500Y-101741178D01*
X118384407Y-101682987D01*
X118433907Y-101647023D01*
X118463908Y-101642180D01*
X119660677Y-101635033D01*
X129929909Y-101573704D01*
X129988211Y-101592263D01*
G37*
%TD.AperFunction*%
%TA.AperFunction,Conductor*%
G36*
X116546555Y-102149119D02*
G01*
X116558857Y-102150282D01*
X116558863Y-102150282D01*
X116561166Y-102150500D01*
X117519510Y-102150500D01*
X117577701Y-102169407D01*
X117613665Y-102218907D01*
X117613665Y-102280093D01*
X117599602Y-102307691D01*
X117597924Y-102310000D01*
X117591936Y-102310000D01*
X117591936Y-104423268D01*
X117670500Y-104423268D01*
X117728691Y-104442175D01*
X117764655Y-104491675D01*
X117769500Y-104522268D01*
X117769500Y-105579748D01*
X117781133Y-105638231D01*
X117825448Y-105704552D01*
X117891769Y-105748867D01*
X117901332Y-105750769D01*
X117901334Y-105750770D01*
X117924005Y-105755279D01*
X117950252Y-105760500D01*
X119039748Y-105760500D01*
X119044509Y-105759553D01*
X119044518Y-105759552D01*
X119060684Y-105756336D01*
X119099316Y-105756336D01*
X119115482Y-105759552D01*
X119115491Y-105759553D01*
X119120252Y-105760500D01*
X119285266Y-105760500D01*
X119343457Y-105779407D01*
X119379421Y-105828907D01*
X119379421Y-105890093D01*
X119374057Y-105903285D01*
X119311796Y-106029542D01*
X119310359Y-106032457D01*
X119253034Y-106201338D01*
X119252402Y-106204516D01*
X119252400Y-106204523D01*
X119238780Y-106273001D01*
X119218243Y-106376256D01*
X119218032Y-106379479D01*
X119218031Y-106379485D01*
X119211151Y-106484493D01*
X119210343Y-106490278D01*
X119209957Y-106491376D01*
X119209500Y-106496653D01*
X119209500Y-106502980D01*
X119190593Y-106561171D01*
X119141093Y-106597135D01*
X119110330Y-106601980D01*
X118501978Y-106600924D01*
X117985681Y-106600027D01*
X117985680Y-106600027D01*
X117970000Y-106600000D01*
X117973091Y-107823795D01*
X117975113Y-108624674D01*
X117956352Y-108682912D01*
X117906943Y-108719001D01*
X117845758Y-108719156D01*
X117830352Y-108712713D01*
X117758470Y-108675244D01*
X117685753Y-108637339D01*
X117676010Y-108631527D01*
X117440271Y-108471879D01*
X117431249Y-108464983D01*
X117244343Y-108304318D01*
X117215337Y-108279384D01*
X117207166Y-108271501D01*
X117013935Y-108062407D01*
X117006719Y-108053639D01*
X116920361Y-107935500D01*
X116838703Y-107823791D01*
X116832541Y-107814258D01*
X116691947Y-107566675D01*
X116686915Y-107556496D01*
X116575599Y-107294445D01*
X116571766Y-107283756D01*
X116556902Y-107233382D01*
X116491190Y-107010679D01*
X116488609Y-106999632D01*
X116481208Y-106957064D01*
X116455154Y-106807227D01*
X116439835Y-106719122D01*
X116438535Y-106707842D01*
X116423729Y-106450157D01*
X116424562Y-106440300D01*
X116424488Y-106440300D01*
X116424507Y-106429149D01*
X116427005Y-106418285D01*
X116424295Y-106406310D01*
X116421854Y-106384447D01*
X116422438Y-102246172D01*
X116441354Y-102187984D01*
X116490859Y-102152027D01*
X116530754Y-102147625D01*
X116546555Y-102149119D01*
G37*
%TD.AperFunction*%
%TA.AperFunction,Conductor*%
G36*
X135002482Y-100571568D02*
G01*
X135036351Y-100622524D01*
X135033800Y-100683656D01*
X135011007Y-100719169D01*
X134877102Y-100853074D01*
X134865295Y-100863158D01*
X134848353Y-100875467D01*
X134836934Y-100891185D01*
X134832140Y-100897265D01*
X134764213Y-100976798D01*
X134764207Y-100976806D01*
X134761686Y-100979758D01*
X134723977Y-101041296D01*
X134692953Y-101091923D01*
X134692950Y-101091929D01*
X134690918Y-101095245D01*
X134639086Y-101220381D01*
X134638179Y-101224161D01*
X134611421Y-101335623D01*
X134607469Y-101352084D01*
X134605745Y-101373993D01*
X134602903Y-101410108D01*
X134601454Y-101420005D01*
X134599957Y-101424269D01*
X134599500Y-101429546D01*
X134599500Y-101449466D01*
X134599194Y-101457244D01*
X134598963Y-101460175D01*
X134598051Y-101467880D01*
X134596224Y-101479417D01*
X134596224Y-101479421D01*
X134595006Y-101487112D01*
X134596225Y-101494805D01*
X134597763Y-101504515D01*
X134597763Y-101535489D01*
X134595006Y-101552898D01*
X134596226Y-101560597D01*
X134596226Y-101565724D01*
X134588689Y-101603615D01*
X134586863Y-101608023D01*
X134565407Y-101640135D01*
X134561761Y-101643781D01*
X134555461Y-101648359D01*
X134544808Y-101663022D01*
X134543159Y-101665292D01*
X134533069Y-101677107D01*
X134348968Y-101861208D01*
X134339642Y-101869429D01*
X134333193Y-101874432D01*
X134325992Y-101878317D01*
X134315896Y-101889239D01*
X134301388Y-101902131D01*
X134298215Y-101904436D01*
X134298213Y-101904438D01*
X134291912Y-101909016D01*
X134287333Y-101915319D01*
X134281824Y-101920828D01*
X134281738Y-101920742D01*
X134271670Y-101931419D01*
X134205724Y-101985539D01*
X134189586Y-101996322D01*
X134096218Y-102046227D01*
X134078289Y-102053653D01*
X134008693Y-102074765D01*
X133976984Y-102084383D01*
X133957953Y-102088169D01*
X133873033Y-102096532D01*
X133858383Y-102096100D01*
X133858383Y-102096225D01*
X133850592Y-102096225D01*
X133842896Y-102095006D01*
X133835199Y-102096225D01*
X133822217Y-102098281D01*
X133806731Y-102099500D01*
X130882962Y-102099500D01*
X130824771Y-102080593D01*
X130788807Y-102031093D01*
X130788807Y-101969907D01*
X130800648Y-101945497D01*
X130813448Y-101926341D01*
X130818867Y-101918231D01*
X130822070Y-101902131D01*
X130829552Y-101864512D01*
X130830500Y-101859748D01*
X130830500Y-100975817D01*
X130849407Y-100917626D01*
X130898907Y-100881662D01*
X130928748Y-100876820D01*
X132724748Y-100863180D01*
X132783081Y-100881645D01*
X132819420Y-100930870D01*
X132824500Y-100962177D01*
X132824500Y-101353488D01*
X132825109Y-101357332D01*
X132825109Y-101357334D01*
X132836571Y-101429699D01*
X132840281Y-101453126D01*
X132843817Y-101460065D01*
X132843817Y-101460066D01*
X132897653Y-101565724D01*
X132901472Y-101573220D01*
X132996780Y-101668528D01*
X133003717Y-101672063D01*
X133003719Y-101672064D01*
X133025157Y-101682987D01*
X133116874Y-101729719D01*
X133124568Y-101730938D01*
X133124569Y-101730938D01*
X133212666Y-101744891D01*
X133212668Y-101744891D01*
X133216512Y-101745500D01*
X133733488Y-101745500D01*
X133737332Y-101744891D01*
X133737334Y-101744891D01*
X133825431Y-101730938D01*
X133825432Y-101730938D01*
X133833126Y-101729719D01*
X133924843Y-101682987D01*
X133946281Y-101672064D01*
X133946283Y-101672063D01*
X133953220Y-101668528D01*
X134048528Y-101573220D01*
X134052348Y-101565724D01*
X134106183Y-101460066D01*
X134106183Y-101460065D01*
X134109719Y-101453126D01*
X134113430Y-101429699D01*
X134124891Y-101357334D01*
X134124891Y-101357332D01*
X134125500Y-101353488D01*
X134125500Y-100950792D01*
X134144407Y-100892601D01*
X134193907Y-100856637D01*
X134223748Y-100851795D01*
X134445567Y-100850110D01*
X134445568Y-100850110D01*
X134460000Y-100850000D01*
X134886202Y-100566716D01*
X134945130Y-100550251D01*
X135002482Y-100571568D01*
G37*
%TD.AperFunction*%
%TD*%
M02*
