%TF.GenerationSoftware,KiCad,Pcbnew,(6.0.9)*%
%TF.CreationDate,2022-11-24T16:48:46+01:00*%
%TF.ProjectId,LDAD ATOM PRO,4c444144-2041-4544-9f4d-2050524f2e6b,5.3*%
%TF.SameCoordinates,Original*%
%TF.FileFunction,Legend,Top*%
%TF.FilePolarity,Positive*%
%FSLAX46Y46*%
G04 Gerber Fmt 4.6, Leading zero omitted, Abs format (unit mm)*
G04 Created by KiCad (PCBNEW (6.0.9)) date 2022-11-24 16:48:46*
%MOMM*%
%LPD*%
G01*
G04 APERTURE LIST*
%ADD10C,0.280000*%
%ADD11C,0.340000*%
%ADD12C,0.150000*%
%ADD13C,0.120000*%
%ADD14C,0.127000*%
%ADD15C,0.381000*%
%ADD16C,0.300000*%
%ADD17C,0.200000*%
G04 APERTURE END LIST*
D10*
X152501050Y-107610000D02*
G75*
G03*
X152501050Y-107610000I-191050J0D01*
G01*
D11*
X147470799Y-86590000D02*
G75*
G03*
X147470799Y-86590000I-250799J0D01*
G01*
D10*
X149671050Y-89850000D02*
G75*
G03*
X149671050Y-89850000I-191050J0D01*
G01*
X138011050Y-89170000D02*
G75*
G03*
X138011050Y-89170000I-191050J0D01*
G01*
X156248694Y-108268951D02*
G75*
G03*
X156248694Y-108268951I-218694J0D01*
G01*
X159501050Y-102350000D02*
G75*
G03*
X159501050Y-102350000I-191050J0D01*
G01*
X145861050Y-95120000D02*
G75*
G03*
X145861050Y-95120000I-191050J0D01*
G01*
X135361050Y-99730000D02*
G75*
G03*
X135361050Y-99730000I-191050J0D01*
G01*
X159501050Y-90160000D02*
G75*
G03*
X159501050Y-90160000I-191050J0D01*
G01*
X137771050Y-95630000D02*
G75*
G03*
X137771050Y-95630000I-191050J0D01*
G01*
D12*
X121460000Y-108016666D02*
X121793333Y-108016666D01*
X121393333Y-108216666D02*
X121626666Y-107516666D01*
X121860000Y-108216666D01*
X122093333Y-108216666D02*
X122093333Y-107516666D01*
X122493333Y-108216666D01*
X122493333Y-107516666D01*
X122726666Y-107516666D02*
X123126666Y-107516666D01*
X122926666Y-108216666D02*
X122926666Y-107516666D01*
X123360000Y-107850000D02*
X123593333Y-107850000D01*
X123693333Y-108216666D02*
X123360000Y-108216666D01*
X123360000Y-107516666D01*
X123693333Y-107516666D01*
X123993333Y-108216666D02*
X123993333Y-107516666D01*
X124393333Y-108216666D01*
X124393333Y-107516666D01*
X124726666Y-108216666D02*
X124726666Y-107516666D01*
X125126666Y-108216666D01*
X125126666Y-107516666D01*
X125426666Y-108016666D02*
X125760000Y-108016666D01*
X125360000Y-108216666D02*
X125593333Y-107516666D01*
X125826666Y-108216666D01*
X149673333Y-85866666D02*
X150106666Y-85866666D01*
X149873333Y-86133333D01*
X149973333Y-86133333D01*
X150040000Y-86166666D01*
X150073333Y-86200000D01*
X150106666Y-86266666D01*
X150106666Y-86433333D01*
X150073333Y-86500000D01*
X150040000Y-86533333D01*
X149973333Y-86566666D01*
X149773333Y-86566666D01*
X149706666Y-86533333D01*
X149673333Y-86500000D01*
X150306666Y-85866666D02*
X150540000Y-86566666D01*
X150773333Y-85866666D01*
X150940000Y-85866666D02*
X151373333Y-85866666D01*
X151140000Y-86133333D01*
X151240000Y-86133333D01*
X151306666Y-86166666D01*
X151340000Y-86200000D01*
X151373333Y-86266666D01*
X151373333Y-86433333D01*
X151340000Y-86500000D01*
X151306666Y-86533333D01*
X151240000Y-86566666D01*
X151040000Y-86566666D01*
X150973333Y-86533333D01*
X150940000Y-86500000D01*
X125816666Y-101780000D02*
X125750000Y-101746666D01*
X125650000Y-101746666D01*
X125550000Y-101780000D01*
X125483333Y-101846666D01*
X125450000Y-101913333D01*
X125416666Y-102046666D01*
X125416666Y-102146666D01*
X125450000Y-102280000D01*
X125483333Y-102346666D01*
X125550000Y-102413333D01*
X125650000Y-102446666D01*
X125716666Y-102446666D01*
X125816666Y-102413333D01*
X125850000Y-102380000D01*
X125850000Y-102146666D01*
X125716666Y-102146666D01*
X126150000Y-102446666D02*
X126150000Y-101746666D01*
X126550000Y-102446666D01*
X126550000Y-101746666D01*
X126883333Y-102446666D02*
X126883333Y-101746666D01*
X127050000Y-101746666D01*
X127150000Y-101780000D01*
X127216666Y-101846666D01*
X127250000Y-101913333D01*
X127283333Y-102046666D01*
X127283333Y-102146666D01*
X127250000Y-102280000D01*
X127216666Y-102346666D01*
X127150000Y-102413333D01*
X127050000Y-102446666D01*
X126883333Y-102446666D01*
X117273333Y-88143333D02*
X117273333Y-87810000D01*
X116940000Y-87776666D01*
X116973333Y-87810000D01*
X117006666Y-87876666D01*
X117006666Y-88043333D01*
X116973333Y-88110000D01*
X116940000Y-88143333D01*
X116873333Y-88176666D01*
X116706666Y-88176666D01*
X116640000Y-88143333D01*
X116606666Y-88110000D01*
X116573333Y-88043333D01*
X116573333Y-87876666D01*
X116606666Y-87810000D01*
X116640000Y-87776666D01*
X117273333Y-88376666D02*
X116573333Y-88610000D01*
X117273333Y-88843333D01*
X117273333Y-89210000D02*
X117273333Y-89276666D01*
X117240000Y-89343333D01*
X117206666Y-89376666D01*
X117140000Y-89410000D01*
X117006666Y-89443333D01*
X116840000Y-89443333D01*
X116706666Y-89410000D01*
X116640000Y-89376666D01*
X116606666Y-89343333D01*
X116573333Y-89276666D01*
X116573333Y-89210000D01*
X116606666Y-89143333D01*
X116640000Y-89110000D01*
X116706666Y-89076666D01*
X116840000Y-89043333D01*
X117006666Y-89043333D01*
X117140000Y-89076666D01*
X117206666Y-89110000D01*
X117240000Y-89143333D01*
X117273333Y-89210000D01*
%TO.C,*%
%TO.C,I2C2*%
X118052380Y-100002380D02*
X117052380Y-100002380D01*
X117147619Y-99573809D02*
X117100000Y-99526190D01*
X117052380Y-99430952D01*
X117052380Y-99192857D01*
X117100000Y-99097619D01*
X117147619Y-99050000D01*
X117242857Y-99002380D01*
X117338095Y-99002380D01*
X117480952Y-99050000D01*
X118052380Y-99621428D01*
X118052380Y-99002380D01*
X117957142Y-98002380D02*
X118004761Y-98050000D01*
X118052380Y-98192857D01*
X118052380Y-98288095D01*
X118004761Y-98430952D01*
X117909523Y-98526190D01*
X117814285Y-98573809D01*
X117623809Y-98621428D01*
X117480952Y-98621428D01*
X117290476Y-98573809D01*
X117195238Y-98526190D01*
X117100000Y-98430952D01*
X117052380Y-98288095D01*
X117052380Y-98192857D01*
X117100000Y-98050000D01*
X117147619Y-98002380D01*
X117147619Y-97621428D02*
X117100000Y-97573809D01*
X117052380Y-97478571D01*
X117052380Y-97240476D01*
X117100000Y-97145238D01*
X117147619Y-97097619D01*
X117242857Y-97050000D01*
X117338095Y-97050000D01*
X117480952Y-97097619D01*
X118052380Y-97669047D01*
X118052380Y-97050000D01*
%TO.C,J3*%
X116852380Y-92843333D02*
X117566666Y-92843333D01*
X117709523Y-92890952D01*
X117804761Y-92986190D01*
X117852380Y-93129047D01*
X117852380Y-93224285D01*
X116852380Y-92462380D02*
X116852380Y-91843333D01*
X117233333Y-92176666D01*
X117233333Y-92033809D01*
X117280952Y-91938571D01*
X117328571Y-91890952D01*
X117423809Y-91843333D01*
X117661904Y-91843333D01*
X117757142Y-91890952D01*
X117804761Y-91938571D01*
X117852380Y-92033809D01*
X117852380Y-92319523D01*
X117804761Y-92414761D01*
X117757142Y-92462380D01*
%TO.C,*%
D13*
%TO.C,EC20*%
X131980000Y-104399420D02*
X131980000Y-104680580D01*
X133000000Y-104399420D02*
X133000000Y-104680580D01*
%TO.C,EC18*%
X142225000Y-106801252D02*
X142225000Y-106278748D01*
X143695000Y-106801252D02*
X143695000Y-106278748D01*
%TO.C,AUC1*%
X147370000Y-106259420D02*
X147370000Y-106540580D01*
X146350000Y-106259420D02*
X146350000Y-106540580D01*
%TO.C,AR1*%
X161425000Y-90622936D02*
X161425000Y-91077064D01*
X159955000Y-90622936D02*
X159955000Y-91077064D01*
%TO.C,EC25*%
X149828748Y-102745000D02*
X150351252Y-102745000D01*
X149828748Y-101275000D02*
X150351252Y-101275000D01*
%TO.C,LR1*%
X141802742Y-86287500D02*
X142277258Y-86287500D01*
X141802742Y-87332500D02*
X142277258Y-87332500D01*
%TO.C,EXP_R2*%
X127597258Y-95327500D02*
X127122742Y-95327500D01*
X127597258Y-96372500D02*
X127122742Y-96372500D01*
%TO.C,ECY3*%
X132170000Y-92912500D02*
X132170000Y-96112500D01*
X132170000Y-96112500D02*
X136070000Y-96112500D01*
%TO.C,EC60*%
X132620580Y-91220000D02*
X132339420Y-91220000D01*
X132620580Y-92240000D02*
X132339420Y-92240000D01*
%TO.C,EC61*%
X132720580Y-97860000D02*
X132439420Y-97860000D01*
X132720580Y-96840000D02*
X132439420Y-96840000D01*
%TO.C,ESP32S3*%
X139990432Y-94824308D02*
X140450051Y-94364689D01*
X140909670Y-104115692D02*
X140450051Y-104575311D01*
X145555362Y-99470000D02*
X145095743Y-99010381D01*
X140450051Y-104575311D02*
X139990432Y-104115692D01*
X135804359Y-99010381D02*
X135344740Y-99470000D01*
X140450051Y-94364689D02*
X140909670Y-94824308D01*
X145095743Y-99929619D02*
X145555362Y-99470000D01*
%TO.C,ER1*%
X137697500Y-106979758D02*
X137697500Y-106505242D01*
X138742500Y-106979758D02*
X138742500Y-106505242D01*
%TO.C,ER3*%
X122212742Y-89747500D02*
X122687258Y-89747500D01*
X122212742Y-90792500D02*
X122687258Y-90792500D01*
%TO.C,EC38*%
X127049420Y-104810000D02*
X127330580Y-104810000D01*
X127049420Y-105830000D02*
X127330580Y-105830000D01*
%TO.C,J2*%
X162620000Y-104360000D02*
X161360000Y-104360000D01*
X162620000Y-97140000D02*
X162620000Y-104360000D01*
X159560000Y-104360000D02*
X157920000Y-104360000D01*
X159560000Y-97140000D02*
X157900000Y-97140000D01*
X161360000Y-97140000D02*
X162620000Y-97140000D01*
%TO.C,SHC1*%
X159940000Y-106900580D02*
X159940000Y-106619420D01*
X160960000Y-106900580D02*
X160960000Y-106619420D01*
%TO.C,PSR1*%
X146062500Y-90697258D02*
X146062500Y-90222742D01*
X145017500Y-90697258D02*
X145017500Y-90222742D01*
%TO.C,SH1*%
X159170000Y-108110000D02*
X159170000Y-106810000D01*
X156350000Y-108550000D02*
X156350000Y-106810000D01*
D14*
%TO.C,J20*%
X119795000Y-102160000D02*
X117195000Y-102160000D01*
D13*
%TO.C,EC26*%
X145509420Y-104280000D02*
X145790580Y-104280000D01*
X145509420Y-103260000D02*
X145790580Y-103260000D01*
%TO.C,AC1*%
X153581252Y-87925000D02*
X153058748Y-87925000D01*
X153581252Y-86455000D02*
X153058748Y-86455000D01*
%TO.C,EC40*%
X135545000Y-104831252D02*
X135545000Y-104308748D01*
X137015000Y-104831252D02*
X137015000Y-104308748D01*
%TO.C,EXP_R1*%
X127717258Y-94622500D02*
X127242742Y-94622500D01*
X127717258Y-93577500D02*
X127242742Y-93577500D01*
%TO.C,TP2*%
X151360000Y-87530000D02*
G75*
G03*
X151360000Y-87530000I-700000J0D01*
G01*
%TO.C,EC17*%
X145605000Y-106781252D02*
X145605000Y-106258748D01*
X144135000Y-106781252D02*
X144135000Y-106258748D01*
%TO.C,AL1*%
X157817936Y-88760000D02*
X159022064Y-88760000D01*
X157817936Y-86040000D02*
X159022064Y-86040000D01*
%TO.C,EPS1*%
X150190000Y-94290000D02*
X148240000Y-94290000D01*
X150190000Y-89170000D02*
X146740000Y-89170000D01*
X150190000Y-89170000D02*
X152140000Y-89170000D01*
X150190000Y-94290000D02*
X152140000Y-94290000D01*
%TO.C,ICR1*%
X133762742Y-86367500D02*
X134237258Y-86367500D01*
X133762742Y-87412500D02*
X134237258Y-87412500D01*
D14*
%TO.C,ANT1*%
X119790000Y-106830000D02*
X127790000Y-106830000D01*
X127790000Y-108930000D02*
X119790000Y-108930000D01*
D15*
X117630500Y-107880000D02*
G75*
G03*
X117630500Y-107880000I-190500J0D01*
G01*
D13*
%TO.C,EC16*%
X139609420Y-94080000D02*
X139890580Y-94080000D01*
X139609420Y-93060000D02*
X139890580Y-93060000D01*
%TO.C,IMUC1*%
X132319420Y-89360000D02*
X132600580Y-89360000D01*
X132319420Y-90380000D02*
X132600580Y-90380000D01*
%TO.C,EXP_R3*%
X127567258Y-97107500D02*
X127092742Y-97107500D01*
X127567258Y-98152500D02*
X127092742Y-98152500D01*
%TO.C,Q5*%
X119430000Y-87460000D02*
X119430000Y-89135000D01*
X122550000Y-87460000D02*
X122550000Y-86810000D01*
X122550000Y-87460000D02*
X122550000Y-88110000D01*
X119430000Y-87460000D02*
X119430000Y-86810000D01*
%TO.C,EXP_R4*%
X127597258Y-100572500D02*
X127122742Y-100572500D01*
X127597258Y-99527500D02*
X127122742Y-99527500D01*
%TO.C,EC51*%
X143210000Y-90840580D02*
X143210000Y-90559420D01*
X144230000Y-90840580D02*
X144230000Y-90559420D01*
%TO.C,EC15*%
X132559420Y-101580000D02*
X132840580Y-101580000D01*
X132559420Y-100560000D02*
X132840580Y-100560000D01*
%TO.C,TP3*%
X125150000Y-102705000D02*
G75*
G03*
X125150000Y-102705000I-700000J0D01*
G01*
%TO.C,IDR1*%
X138042742Y-87422500D02*
X138517258Y-87422500D01*
X138042742Y-86377500D02*
X138517258Y-86377500D01*
%TO.C,QR1*%
X117827500Y-88017258D02*
X117827500Y-87542742D01*
X118872500Y-88017258D02*
X118872500Y-87542742D01*
%TO.C,L2*%
X133920000Y-105009622D02*
X133920000Y-104210378D01*
X135040000Y-105009622D02*
X135040000Y-104210378D01*
%TO.C,AC2*%
X158211252Y-96205000D02*
X157688748Y-96205000D01*
X158211252Y-94735000D02*
X157688748Y-94735000D01*
%TO.C,LED1*%
X144325000Y-88235000D02*
X148410000Y-88235000D01*
X144325000Y-86065000D02*
X144325000Y-88235000D01*
X148410000Y-86065000D02*
X144325000Y-86065000D01*
D16*
X148596496Y-85543504D02*
G75*
G03*
X148596496Y-85543504I-161496J0D01*
G01*
D13*
%TO.C,EC19*%
X133570580Y-107770000D02*
X133289420Y-107770000D01*
X133570580Y-106750000D02*
X133289420Y-106750000D01*
%TO.C,EC14*%
X132568748Y-98485000D02*
X133091252Y-98485000D01*
X132568748Y-99955000D02*
X133091252Y-99955000D01*
%TO.C,AU1*%
X158975000Y-93485000D02*
X155975000Y-93485000D01*
X155975000Y-93485000D02*
X155975000Y-90485000D01*
X155975000Y-90485000D02*
X158975000Y-90485000D01*
X158975000Y-90485000D02*
X158975000Y-93485000D01*
D17*
X159445011Y-90135000D02*
G75*
G03*
X159445011Y-90135000I-200006J0D01*
G01*
D13*
%TO.C,I2C2*%
X120925000Y-101660000D02*
X120925000Y-100610000D01*
X118425000Y-101660000D02*
X120925000Y-101660000D01*
X120925000Y-96490000D02*
X121915000Y-96490000D01*
X120925000Y-95440000D02*
X120925000Y-96490000D01*
X116455000Y-96610000D02*
X116455000Y-100490000D01*
X118425000Y-95440000D02*
X120925000Y-95440000D01*
%TO.C,EC50*%
X138110000Y-90940580D02*
X138110000Y-90659420D01*
X139130000Y-90940580D02*
X139130000Y-90659420D01*
D17*
%TO.C,ESP_FLASH1*%
X146290000Y-95160000D02*
X146290000Y-94660000D01*
X146290000Y-100660000D02*
X154290000Y-100660000D01*
X154290000Y-94660000D02*
X154290000Y-95160000D01*
X146290000Y-94660000D02*
X154290000Y-94660000D01*
X154290000Y-100660000D02*
X154290000Y-100160000D01*
X146290000Y-100160000D02*
X146290000Y-100660000D01*
X145890000Y-94910000D02*
G75*
G03*
X145890000Y-94910000I-100000J0D01*
G01*
D13*
%TO.C,EC37*%
X121810000Y-103100580D02*
X121810000Y-102819420D01*
X122830000Y-103100580D02*
X122830000Y-102819420D01*
%TO.C,EL4*%
X122750378Y-105990000D02*
X123549622Y-105990000D01*
X122750378Y-104870000D02*
X123549622Y-104870000D01*
%TO.C,AR2*%
X161485000Y-94232936D02*
X161485000Y-94687064D01*
X160015000Y-94232936D02*
X160015000Y-94687064D01*
%TO.C,J3*%
X116395000Y-91400000D02*
X116395000Y-93280000D01*
X120865000Y-94450000D02*
X120865000Y-93400000D01*
X118365000Y-94450000D02*
X120865000Y-94450000D01*
X118365000Y-90230000D02*
X120865000Y-90230000D01*
X120865000Y-90230000D02*
X120865000Y-91280000D01*
X120865000Y-91280000D02*
X121855000Y-91280000D01*
%TO.C,J1*%
X122075000Y-92335000D02*
X122075000Y-91575000D01*
X122075000Y-91575000D02*
X123205000Y-91575000D01*
X122075000Y-93095000D02*
X122075000Y-99380000D01*
X123512530Y-99380000D02*
X124167470Y-99380000D01*
X125605000Y-91640000D02*
X125605000Y-99380000D01*
X123768471Y-93095000D02*
X123911529Y-93095000D01*
X122075000Y-93095000D02*
X122641529Y-93095000D01*
X123965000Y-91771529D02*
X123965000Y-91640000D01*
X123965000Y-91640000D02*
X124167470Y-91640000D01*
X124782530Y-99380000D02*
X125605000Y-99380000D01*
X122075000Y-99380000D02*
X122897470Y-99380000D01*
X123965000Y-93041529D02*
X123965000Y-92898471D01*
X124782530Y-91640000D02*
X125605000Y-91640000D01*
D14*
%TO.C,U2*%
X153395000Y-103160000D02*
X149405000Y-103160000D01*
X153395000Y-108200000D02*
X149405000Y-108200000D01*
D17*
X155950000Y-108175000D02*
G75*
G03*
X155950000Y-108175000I-100000J0D01*
G01*
D14*
%TO.C,IMU1*%
X134710000Y-92380000D02*
X134710000Y-91730000D01*
X134860000Y-92380000D02*
X134710000Y-92380000D01*
X137310000Y-89930000D02*
X137310000Y-89280000D01*
X137310000Y-89280000D02*
X137160000Y-89280000D01*
X134860000Y-89280000D02*
X134710000Y-89280000D01*
X137310000Y-92380000D02*
X137160000Y-92380000D01*
X134710000Y-89280000D02*
X134710000Y-89930000D01*
X137310000Y-91730000D02*
X137310000Y-92380000D01*
D17*
X136860000Y-88880000D02*
G75*
G03*
X136860000Y-88880000I-100000J0D01*
G01*
D13*
%TO.C,ER2*%
X127282742Y-91377500D02*
X127757258Y-91377500D01*
X127282742Y-92422500D02*
X127757258Y-92422500D01*
%TO.C,EC24*%
X153540580Y-102490000D02*
X153259420Y-102490000D01*
X153540580Y-101470000D02*
X153259420Y-101470000D01*
%TO.C,ECY2*%
X142760000Y-92850000D02*
X142760000Y-88950000D01*
X139560000Y-92850000D02*
X142760000Y-92850000D01*
%TO.C,TP1*%
X131990000Y-86530000D02*
G75*
G03*
X131990000Y-86530000I-700000J0D01*
G01*
%TD*%
M02*
